<svg width="329" height="37" viewBox="0 0 329 37" fill="none" xmlns="http://www.w3.org/2000/svg">
<mask id="mask0_1142_6698" style="mask-type:alpha" maskUnits="userSpaceOnUse" x="0" y="0" width="329" height="37">
<rect x="0.601562" y="0.0234375" width="327.844" height="36.8342" fill="#C4C4C4"/>
</mask>
<g mask="url(#mask0_1142_6698)">
<path d="M424.245 95.5616C424.245 108.299 417.018 120.467 403.872 131.566C390.728 142.664 371.694 152.669 348.152 161.076C301.07 177.89 236.01 188.295 164.136 188.295C92.2612 188.295 27.2017 177.89 -19.8805 161.076C-43.4226 152.669 -62.4569 142.664 -75.601 131.566C-88.7463 120.467 -95.9742 108.299 -95.9742 95.5616C-95.9742 82.824 -88.7463 70.6562 -75.601 59.5574C-62.4569 48.4595 -43.4226 38.4542 -19.8805 30.0468C27.2017 13.2329 92.2612 2.82857 164.136 2.82857C236.01 2.82857 301.07 13.2329 348.152 30.0468C371.694 38.4542 390.728 48.4595 403.872 59.5574C417.018 70.6562 424.245 82.824 424.245 95.5616Z" fill="url(#paint0_linear_1142_6698)" fill-opacity="0.3" stroke="#61C3F2" stroke-width="0.489163"/>
</g>
<defs>
<linearGradient id="paint0_linear_1142_6698" x1="164.136" y1="2.58398" x2="164.136" y2="28.6193" gradientUnits="userSpaceOnUse">
<stop stop-color="#61C3F2" stop-opacity="0.26"/>
<stop offset="1" stop-color="#61C3F2" stop-opacity="0"/>
</linearGradient>
</defs>
</svg>
