<svg width="145" height="113" viewBox="0 0 145 113" fill="none" xmlns="http://www.w3.org/2000/svg">
    <rect width="3.07221" height="2.30227" rx="0.430476" transform="matrix(-1 -1.74846e-07 -1.74846e-07 1 20.4453 14.4219)" fill="#A6A6A6" fill-opacity="0.5"/>
    <rect width="2.15055" height="0.460455" rx="0.230228" transform="matrix(-1 -1.74846e-07 -1.74846e-07 1 19.9844 16.877)" fill="#A6A6A6" fill-opacity="0.5"/>
    <rect width="3.07221" height="2.30227" rx="0.430476" transform="matrix(-1 -1.74846e-07 -1.74846e-07 1 26.1016 14.4219)" fill="#A6A6A6" fill-opacity="0.5"/>
    <rect width="2.15055" height="0.460455" rx="0.230228" transform="matrix(-1 -1.74846e-07 -1.74846e-07 1 25.6406 16.877)" fill="#A6A6A6" fill-opacity="0.5"/>
    <rect width="3.07221" height="2.30227" rx="0.430476" transform="matrix(-1 -1.74846e-07 -1.74846e-07 1 37.4062 14.4219)" fill="#61C3F2"/>
    <rect width="2.15055" height="0.460455" rx="0.230228" transform="matrix(-1 -1.74846e-07 -1.74846e-07 1 36.9453 16.877)" fill="#61C3F2"/>
    <rect width="3.07221" height="2.30227" rx="0.430476" transform="matrix(-1 -1.74846e-07 -1.74846e-07 1 43.0625 14.4219)" fill="#61C3F2"/>
    <rect width="2.15055" height="0.460455" rx="0.230228" transform="matrix(-1 -1.74846e-07 -1.74846e-07 1 42.6016 16.877)" fill="#61C3F2"/>
    <rect width="3.07221" height="2.30227" rx="0.430476" transform="matrix(-1 -1.74846e-07 -1.74846e-07 1 48.7188 14.4219)" fill="#A6A6A6" fill-opacity="0.5"/>
    <rect width="2.15055" height="0.460455" rx="0.230228" transform="matrix(-1 -1.74846e-07 -1.74846e-07 1 48.2578 16.877)" fill="#A6A6A6" fill-opacity="0.5"/>
    <rect width="3.07221" height="2.30227" rx="0.430476" transform="matrix(-1 -1.74846e-07 -1.74846e-07 1 54.375 14.4219)" fill="#A6A6A6" fill-opacity="0.5"/>
    <rect width="2.15055" height="0.460455" rx="0.230228" transform="matrix(-1 -1.74846e-07 -1.74846e-07 1 53.9141 16.877)" fill="#A6A6A6" fill-opacity="0.5"/>
    <rect width="3.07221" height="2.30227" rx="0.430476" transform="matrix(-1 -1.74846e-07 -1.74846e-07 1 60.0312 14.4219)" fill="#61C3F2"/>
    <rect width="2.15055" height="0.460455" rx="0.230228" transform="matrix(-1 -1.74846e-07 -1.74846e-07 1 59.5703 16.877)" fill="#61C3F2"/>
    <rect width="3.07221" height="2.30227" rx="0.430476" transform="matrix(-1 -1.74846e-07 -1.74846e-07 1 65.6875 14.4219)" fill="#61C3F2"/>
    <rect width="2.15055" height="0.460455" rx="0.230228" transform="matrix(-1 -1.74846e-07 -1.74846e-07 1 65.2266 16.877)" fill="#61C3F2"/>
    <rect width="3.07221" height="2.30227" rx="0.430476" transform="matrix(-1 -1.74846e-07 -1.74846e-07 1 71.3359 14.4219)" fill="#A6A6A6" fill-opacity="0.5"/>
    <rect width="2.15055" height="0.460455" rx="0.230228" transform="matrix(-1 -1.74846e-07 -1.74846e-07 1 70.875 16.877)" fill="#A6A6A6" fill-opacity="0.5"/>
    <rect width="3.07221" height="2.30227" rx="0.430476" transform="matrix(-1 -1.74846e-07 -1.74846e-07 1 76.9922 14.4219)" fill="#A6A6A6" fill-opacity="0.5"/>
    <rect width="2.15055" height="0.460455" rx="0.230228" transform="matrix(-1 -1.74846e-07 -1.74846e-07 1 76.5312 16.877)" fill="#A6A6A6" fill-opacity="0.5"/>
    <rect width="3.07221" height="2.30227" rx="0.430476" transform="matrix(-1 -1.74846e-07 -1.74846e-07 1 82.6484 14.4219)" fill="#61C3F2"/>
    <rect width="2.15055" height="0.460455" rx="0.230228" transform="matrix(-1 -1.74846e-07 -1.74846e-07 1 82.1875 16.877)" fill="#61C3F2"/>
    <rect width="3.07221" height="2.30227" rx="0.430476" transform="matrix(-1 -1.74846e-07 -1.74846e-07 1 88.3047 14.4219)" fill="#61C3F2"/>
    <rect width="2.15055" height="0.460455" rx="0.230228" transform="matrix(-1 -1.74846e-07 -1.74846e-07 1 87.8438 16.877)" fill="#61C3F2"/>
    <rect width="3.07221" height="2.30227" rx="0.430476" transform="matrix(-1 -1.74846e-07 -1.74846e-07 1 93.9609 14.4219)" fill="#A6A6A6" fill-opacity="0.5"/>
    <rect width="2.15055" height="0.460455" rx="0.230228" transform="matrix(-1 -1.74846e-07 -1.74846e-07 1 93.5 16.877)" fill="#A6A6A6" fill-opacity="0.5"/>
    <rect width="3.07221" height="2.30227" rx="0.430476" transform="matrix(-1 -1.74846e-07 -1.74846e-07 1 99.6172 14.4219)" fill="#A6A6A6" fill-opacity="0.5"/>
    <rect width="2.15055" height="0.460455" rx="0.230228" transform="matrix(-1 -1.74846e-07 -1.74846e-07 1 99.1562 16.877)" fill="#A6A6A6" fill-opacity="0.5"/>
    <rect width="3.07221" height="2.30227" rx="0.430476" transform="matrix(-1 -1.74846e-07 -1.74846e-07 1 105.273 14.4219)" fill="#61C3F2"/>
    <rect width="2.15055" height="0.460455" rx="0.230228" transform="matrix(-1 -1.74846e-07 -1.74846e-07 1 104.812 16.877)" fill="#61C3F2"/>
    <rect width="3.07221" height="2.30227" rx="0.430476" transform="matrix(-1 -1.74846e-07 -1.74846e-07 1 110.922 14.4219)" fill="#61C3F2"/>
    <rect width="2.15055" height="0.460455" rx="0.230228" transform="matrix(-1 -1.74846e-07 -1.74846e-07 1 110.461 16.877)" fill="#61C3F2"/>
    <rect width="3.07221" height="2.30227" rx="0.430476" transform="matrix(-1 -1.74846e-07 -1.74846e-07 1 122.234 14.4219)" fill="#A6A6A6" fill-opacity="0.5"/>
    <rect width="2.15055" height="0.460455" rx="0.230228" transform="matrix(-1 -1.74846e-07 -1.74846e-07 1 121.773 16.877)" fill="#A6A6A6" fill-opacity="0.5"/>
    <rect width="3.07221" height="2.30227" rx="0.430476" transform="matrix(-1 -1.74846e-07 -1.74846e-07 1 127.891 14.4219)" fill="#A6A6A6" fill-opacity="0.5"/>
    <rect width="2.15055" height="0.460455" rx="0.230228" transform="matrix(-1 -1.74846e-07 -1.74846e-07 1 127.43 16.877)" fill="#A6A6A6" fill-opacity="0.5"/>
    <rect width="3.07221" height="2.30227" rx="0.430476" transform="matrix(-1 -1.74846e-07 -1.74846e-07 1 9.13281 21.2129)" fill="#61C3F2"/>
    <rect width="2.15055" height="0.460455" rx="0.230228" transform="matrix(-1 -1.74846e-07 -1.74846e-07 1 8.67188 23.6699)" fill="#61C3F2"/>
    <rect width="3.07221" height="2.30227" rx="0.430476" transform="matrix(-1 -1.74846e-07 -1.74846e-07 1 14.7891 21.2129)" fill="#A6A6A6" fill-opacity="0.5"/>
    <rect width="2.15055" height="0.460455" rx="0.230228" transform="matrix(-1 -1.74846e-07 -1.74846e-07 1 14.3281 23.6699)" fill="#A6A6A6" fill-opacity="0.5"/>
    <rect width="3.07221" height="2.30227" rx="0.430476" transform="matrix(-1 -1.74846e-07 -1.74846e-07 1 20.4453 21.2129)" fill="#61C3F2"/>
    <rect width="2.15055" height="0.460455" rx="0.230228" transform="matrix(-1 -1.74846e-07 -1.74846e-07 1 19.9844 23.6699)" fill="#61C3F2"/>
    <rect width="3.07221" height="2.30227" rx="0.430476" transform="matrix(-1 -1.74846e-07 -1.74846e-07 1 26.1016 21.2129)" fill="#A6A6A6" fill-opacity="0.5"/>
    <rect width="2.15055" height="0.460455" rx="0.230228" transform="matrix(-1 -1.74846e-07 -1.74846e-07 1 25.6406 23.6699)" fill="#A6A6A6" fill-opacity="0.5"/>
    <rect width="3.07221" height="2.30227" rx="0.430476" transform="matrix(-1 -1.74846e-07 -1.74846e-07 1 37.4062 21.2129)" fill="#A6A6A6" fill-opacity="0.5"/>
    <rect width="2.15055" height="0.460455" rx="0.230228" transform="matrix(-1 -1.74846e-07 -1.74846e-07 1 36.9453 23.6699)" fill="#A6A6A6" fill-opacity="0.5"/>
    <rect width="3.07221" height="2.30227" rx="0.430476" transform="matrix(-1 -1.74846e-07 -1.74846e-07 1 43.0625 21.2129)" fill="#A6A6A6" fill-opacity="0.5"/>
    <rect width="2.15055" height="0.460455" rx="0.230228" transform="matrix(-1 -1.74846e-07 -1.74846e-07 1 42.6016 23.6699)" fill="#A6A6A6" fill-opacity="0.5"/>
    <rect width="3.07221" height="2.30227" rx="0.430476" transform="matrix(-1 -1.74846e-07 -1.74846e-07 1 48.7188 21.2129)" fill="#61C3F2"/>
    <rect width="2.15055" height="0.460455" rx="0.230228" transform="matrix(-1 -1.74846e-07 -1.74846e-07 1 48.2578 23.6699)" fill="#61C3F2"/>
    <rect width="3.07221" height="2.30227" rx="0.430476" transform="matrix(-1 -1.74846e-07 -1.74846e-07 1 54.375 21.2129)" fill="#61C3F2"/>
    <rect width="2.15055" height="0.460455" rx="0.230228" transform="matrix(-1 -1.74846e-07 -1.74846e-07 1 53.9141 23.6699)" fill="#61C3F2"/>
    <rect width="3.07221" height="2.30227" rx="0.430476" transform="matrix(-1 -1.74846e-07 -1.74846e-07 1 60.0312 21.2129)" fill="#A6A6A6" fill-opacity="0.5"/>
    <rect width="2.15055" height="0.460455" rx="0.230228" transform="matrix(-1 -1.74846e-07 -1.74846e-07 1 59.5703 23.6699)" fill="#A6A6A6" fill-opacity="0.5"/>
    <rect width="3.07221" height="2.30227" rx="0.430476" transform="matrix(-1 -1.74846e-07 -1.74846e-07 1 65.6875 21.2129)" fill="#A6A6A6" fill-opacity="0.5"/>
    <rect width="2.15055" height="0.460455" rx="0.230228" transform="matrix(-1 -1.74846e-07 -1.74846e-07 1 65.2266 23.6699)" fill="#A6A6A6" fill-opacity="0.5"/>
    <rect width="3.07221" height="2.30227" rx="0.430476" transform="matrix(-1 -1.74846e-07 -1.74846e-07 1 71.3359 21.2129)" fill="#61C3F2"/>
    <rect width="2.15055" height="0.460455" rx="0.230228" transform="matrix(-1 -1.74846e-07 -1.74846e-07 1 70.875 23.6699)" fill="#61C3F2"/>
    <rect width="3.07221" height="2.30227" rx="0.430476" transform="matrix(-1 -1.74846e-07 -1.74846e-07 1 76.9922 21.2129)" fill="#61C3F2"/>
    <rect width="2.15055" height="0.460455" rx="0.230228" transform="matrix(-1 -1.74846e-07 -1.74846e-07 1 76.5312 23.6699)" fill="#61C3F2"/>
    <rect width="3.07221" height="2.30227" rx="0.430476" transform="matrix(-1 -1.74846e-07 -1.74846e-07 1 82.6484 21.2129)" fill="#A6A6A6" fill-opacity="0.5"/>
    <rect width="2.15055" height="0.460455" rx="0.230228" transform="matrix(-1 -1.74846e-07 -1.74846e-07 1 82.1875 23.6699)" fill="#A6A6A6" fill-opacity="0.5"/>
    <rect width="3.07221" height="2.30227" rx="0.430476" transform="matrix(-1 -1.74846e-07 -1.74846e-07 1 88.3047 21.2129)" fill="#A6A6A6" fill-opacity="0.5"/>
    <rect width="2.15055" height="0.460455" rx="0.230228" transform="matrix(-1 -1.74846e-07 -1.74846e-07 1 87.8438 23.6699)" fill="#A6A6A6" fill-opacity="0.5"/>
    <rect width="3.07221" height="2.30227" rx="0.430476" transform="matrix(-1 -1.74846e-07 -1.74846e-07 1 93.9609 21.2129)" fill="#61C3F2"/>
    <rect width="2.15055" height="0.460455" rx="0.230228" transform="matrix(-1 -1.74846e-07 -1.74846e-07 1 93.5 23.6699)" fill="#61C3F2"/>
    <rect width="3.07221" height="2.30227" rx="0.430476" transform="matrix(-1 -1.74846e-07 -1.74846e-07 1 99.6172 21.2129)" fill="#61C3F2"/>
    <rect width="2.15055" height="0.460455" rx="0.230228" transform="matrix(-1 -1.74846e-07 -1.74846e-07 1 99.1562 23.6699)" fill="#61C3F2"/>
    <rect width="3.07221" height="2.30227" rx="0.430476" transform="matrix(-1 -1.74846e-07 -1.74846e-07 1 105.273 21.2129)" fill="#A6A6A6" fill-opacity="0.5"/>
    <rect width="2.15055" height="0.460455" rx="0.230228" transform="matrix(-1 -1.74846e-07 -1.74846e-07 1 104.812 23.6699)" fill="#A6A6A6" fill-opacity="0.5"/>
    <rect width="3.07221" height="2.30227" rx="0.430476" transform="matrix(-1 -1.74846e-07 -1.74846e-07 1 110.922 21.2129)" fill="#A6A6A6" fill-opacity="0.5"/>
    <rect width="2.15055" height="0.460455" rx="0.230228" transform="matrix(-1 -1.74846e-07 -1.74846e-07 1 110.461 23.6699)" fill="#A6A6A6" fill-opacity="0.5"/>
    <rect width="3.07221" height="2.30227" rx="0.430476" transform="matrix(-1 -1.74846e-07 -1.74846e-07 1 122.234 21.2129)" fill="#A6A6A6" fill-opacity="0.5"/>
    <rect width="2.15055" height="0.460455" rx="0.230228" transform="matrix(-1 -1.74846e-07 -1.74846e-07 1 121.773 23.6699)" fill="#A6A6A6" fill-opacity="0.5"/>
    <rect width="3.07221" height="2.30227" rx="0.430476" transform="matrix(-1 -1.74846e-07 -1.74846e-07 1 127.891 21.2129)" fill="#61C3F2"/>
    <rect width="2.15055" height="0.460455" rx="0.230228" transform="matrix(-1 -1.74846e-07 -1.74846e-07 1 127.43 23.6699)" fill="#61C3F2"/>
    <rect width="3.07221" height="2.30227" rx="0.430476" transform="matrix(-1 -1.74846e-07 -1.74846e-07 1 133.547 21.2129)" fill="#A6A6A6" fill-opacity="0.5"/>
    <rect width="2.15055" height="0.460455" rx="0.230228" transform="matrix(-1 -1.74846e-07 -1.74846e-07 1 133.086 23.6699)" fill="#A6A6A6" fill-opacity="0.5"/>
    <rect width="3.07221" height="2.30227" rx="0.430476" transform="matrix(-1 -1.74846e-07 -1.74846e-07 1 139.203 21.2129)" fill="#61C3F2"/>
    <rect width="2.15055" height="0.460455" rx="0.230228" transform="matrix(-1 -1.74846e-07 -1.74846e-07 1 138.742 23.6699)" fill="#61C3F2"/>
    <rect width="3.07221" height="2.30227" rx="0.430476" transform="matrix(-1 -1.74846e-07 -1.74846e-07 1 9.13281 28.0039)" fill="#A6A6A6" fill-opacity="0.5"/>
    <rect width="2.15055" height="0.460455" rx="0.230228" transform="matrix(-1 -1.74846e-07 -1.74846e-07 1 8.67188 30.459)" fill="#A6A6A6" fill-opacity="0.5"/>
    <rect width="3.07221" height="2.30227" rx="0.430476" transform="matrix(-1 -1.74846e-07 -1.74846e-07 1 14.7891 28.0039)" fill="#61C3F2"/>
    <rect width="2.15055" height="0.460455" rx="0.230228" transform="matrix(-1 -1.74846e-07 -1.74846e-07 1 14.3281 30.459)" fill="#61C3F2"/>
    <rect width="3.07221" height="2.30227" rx="0.430476" transform="matrix(-1 -1.74846e-07 -1.74846e-07 1 20.4453 28.0039)" fill="#A6A6A6" fill-opacity="0.5"/>
    <rect width="2.15055" height="0.460455" rx="0.230228" transform="matrix(-1 -1.74846e-07 -1.74846e-07 1 19.9844 30.459)" fill="#A6A6A6" fill-opacity="0.5"/>
    <rect width="3.07221" height="2.30227" rx="0.430476" transform="matrix(-1 -1.74846e-07 -1.74846e-07 1 26.1016 28.0039)" fill="#A6A6A6" fill-opacity="0.5"/>
    <rect width="2.15055" height="0.460455" rx="0.230228" transform="matrix(-1 -1.74846e-07 -1.74846e-07 1 25.6406 30.459)" fill="#A6A6A6" fill-opacity="0.5"/>
    <rect width="3.07221" height="2.30227" rx="0.430476" transform="matrix(-1 -1.74846e-07 -1.74846e-07 1 37.4062 28.0039)" fill="#15D2BC"/>
    <rect width="2.15055" height="0.460455" rx="0.230228" transform="matrix(-1 -1.74846e-07 -1.74846e-07 1 36.9453 30.459)" fill="#15D2BC"/>
    <rect width="3.07221" height="2.30227" rx="0.430476" transform="matrix(-1 -1.74846e-07 -1.74846e-07 1 43.0625 28.0039)" fill="#15D2BC"/>
    <rect width="2.15055" height="0.460455" rx="0.230228" transform="matrix(-1 -1.74846e-07 -1.74846e-07 1 42.6016 30.459)" fill="#15D2BC"/>
    <rect width="3.07221" height="2.30227" rx="0.430476" transform="matrix(-1 -1.74846e-07 -1.74846e-07 1 48.7188 28.0039)" fill="#A6A6A6" fill-opacity="0.5"/>
    <rect width="2.15055" height="0.460455" rx="0.230228" transform="matrix(-1 -1.74846e-07 -1.74846e-07 1 48.2578 30.459)" fill="#A6A6A6" fill-opacity="0.5"/>
    <rect width="3.07221" height="2.30227" rx="0.430476" transform="matrix(-1 -1.74846e-07 -1.74846e-07 1 54.375 28.0039)" fill="#A6A6A6" fill-opacity="0.5"/>
    <rect width="2.15055" height="0.460455" rx="0.230228" transform="matrix(-1 -1.74846e-07 -1.74846e-07 1 53.9141 30.459)" fill="#A6A6A6" fill-opacity="0.5"/>
    <rect width="3.07221" height="2.30227" rx="0.430476" transform="matrix(-1 -1.74846e-07 -1.74846e-07 1 60.0312 28.0039)" fill="#61C3F2"/>
    <rect width="2.15055" height="0.460455" rx="0.230228" transform="matrix(-1 -1.74846e-07 -1.74846e-07 1 59.5703 30.459)" fill="#61C3F2"/>
    <rect width="3.07221" height="2.30227" rx="0.430476" transform="matrix(-1 -1.74846e-07 -1.74846e-07 1 65.6875 28.0039)" fill="#61C3F2"/>
    <rect width="2.15055" height="0.460455" rx="0.230228" transform="matrix(-1 -1.74846e-07 -1.74846e-07 1 65.2266 30.459)" fill="#61C3F2"/>
    <rect width="3.07221" height="2.30227" rx="0.430476" transform="matrix(-1 -1.74846e-07 -1.74846e-07 1 71.3359 28.0039)" fill="#A6A6A6" fill-opacity="0.5"/>
    <rect width="2.15055" height="0.460455" rx="0.230228" transform="matrix(-1 -1.74846e-07 -1.74846e-07 1 70.875 30.459)" fill="#A6A6A6" fill-opacity="0.5"/>
    <rect width="3.07221" height="2.30227" rx="0.430476" transform="matrix(-1 -1.74846e-07 -1.74846e-07 1 76.9922 28.0039)" fill="#A6A6A6" fill-opacity="0.5"/>
    <rect width="2.15055" height="0.460455" rx="0.230228" transform="matrix(-1 -1.74846e-07 -1.74846e-07 1 76.5312 30.459)" fill="#A6A6A6" fill-opacity="0.5"/>
    <rect width="3.07221" height="2.30227" rx="0.430476" transform="matrix(-1 -1.74846e-07 -1.74846e-07 1 82.6484 28.0039)" fill="#61C3F2"/>
    <rect width="2.15055" height="0.460455" rx="0.230228" transform="matrix(-1 -1.74846e-07 -1.74846e-07 1 82.1875 30.459)" fill="#61C3F2"/>
    <rect width="3.07221" height="2.30227" rx="0.430476" transform="matrix(-1 -1.74846e-07 -1.74846e-07 1 88.3047 28.0039)" fill="#61C3F2"/>
    <rect width="2.15055" height="0.460455" rx="0.230228" transform="matrix(-1 -1.74846e-07 -1.74846e-07 1 87.8438 30.459)" fill="#61C3F2"/>
    <rect width="3.07221" height="2.30227" rx="0.430476" transform="matrix(-1 -1.74846e-07 -1.74846e-07 1 93.9609 28.0039)" fill="#A6A6A6" fill-opacity="0.5"/>
    <rect width="2.15055" height="0.460455" rx="0.230228" transform="matrix(-1 -1.74846e-07 -1.74846e-07 1 93.5 30.459)" fill="#A6A6A6" fill-opacity="0.5"/>
    <rect width="3.07221" height="2.30227" rx="0.430476" transform="matrix(-1 -1.74846e-07 -1.74846e-07 1 99.6172 28.0039)" fill="#A6A6A6" fill-opacity="0.5"/>
    <rect width="2.15055" height="0.460455" rx="0.230228" transform="matrix(-1 -1.74846e-07 -1.74846e-07 1 99.1562 30.459)" fill="#A6A6A6" fill-opacity="0.5"/>
    <rect width="3.07221" height="2.30227" rx="0.430476" transform="matrix(-1 -1.74846e-07 -1.74846e-07 1 105.273 28.0039)" fill="#15D2BC"/>
    <rect width="2.15055" height="0.460455" rx="0.230228" transform="matrix(-1 -1.74846e-07 -1.74846e-07 1 104.812 30.459)" fill="#15D2BC"/>
    <rect width="3.07221" height="2.30227" rx="0.430476" transform="matrix(-1 -1.74846e-07 -1.74846e-07 1 110.922 28.0039)" fill="#15D2BC"/>
    <rect width="2.15055" height="0.460455" rx="0.230228" transform="matrix(-1 -1.74846e-07 -1.74846e-07 1 110.461 30.459)" fill="#15D2BC"/>
    <rect width="3.07221" height="2.30227" rx="0.430476" transform="matrix(-1 -1.74846e-07 -1.74846e-07 1 122.234 28.0039)" fill="#A6A6A6" fill-opacity="0.5"/>
    <rect width="2.15055" height="0.460455" rx="0.230228" transform="matrix(-1 -1.74846e-07 -1.74846e-07 1 121.773 30.459)" fill="#A6A6A6" fill-opacity="0.5"/>
    <rect width="3.07221" height="2.30227" rx="0.430476" transform="matrix(-1 -1.74846e-07 -1.74846e-07 1 127.891 28.0039)" fill="#A6A6A6" fill-opacity="0.5"/>
    <rect width="2.15055" height="0.460455" rx="0.230228" transform="matrix(-1 -1.74846e-07 -1.74846e-07 1 127.43 30.459)" fill="#A6A6A6" fill-opacity="0.5"/>
    <rect width="3.07221" height="2.30227" rx="0.430476" transform="matrix(-1 -1.74846e-07 -1.74846e-07 1 133.547 28.0039)" fill="#61C3F2"/>
    <rect width="2.15055" height="0.460455" rx="0.230228" transform="matrix(-1 -1.74846e-07 -1.74846e-07 1 133.086 30.459)" fill="#61C3F2"/>
    <rect width="3.07221" height="2.30227" rx="0.430476" transform="matrix(-1 -1.74846e-07 -1.74846e-07 1 139.203 28.0039)" fill="#A6A6A6" fill-opacity="0.5"/>
    <rect width="2.15055" height="0.460455" rx="0.230228" transform="matrix(-1 -1.74846e-07 -1.74846e-07 1 138.742 30.459)" fill="#A6A6A6" fill-opacity="0.5"/>
    <rect width="3.07221" height="2.30227" rx="0.430476" transform="matrix(-1 -1.74846e-07 -1.74846e-07 1 9.13281 34.793)" fill="#A6A6A6" fill-opacity="0.5"/>
    <rect width="2.15055" height="0.460455" rx="0.230228" transform="matrix(-1 -1.74846e-07 -1.74846e-07 1 8.67188 37.248)" fill="#A6A6A6" fill-opacity="0.5"/>
    <rect width="3.07221" height="2.30227" rx="0.430476" transform="matrix(-1 -1.74846e-07 -1.74846e-07 1 14.7891 34.793)" fill="#A6A6A6" fill-opacity="0.5"/>
    <rect width="2.15055" height="0.460455" rx="0.230228" transform="matrix(-1 -1.74846e-07 -1.74846e-07 1 14.3281 37.248)" fill="#A6A6A6" fill-opacity="0.5"/>
    <rect width="3.07221" height="2.30227" rx="0.430476" transform="matrix(-1 -1.74846e-07 -1.74846e-07 1 20.4453 34.793)" fill="#61C3F2"/>
    <rect width="2.15055" height="0.460455" rx="0.230228" transform="matrix(-1 -1.74846e-07 -1.74846e-07 1 19.9844 37.248)" fill="#61C3F2"/>
    <rect width="3.07221" height="2.30227" rx="0.430476" transform="matrix(-1 -1.74846e-07 -1.74846e-07 1 26.1016 34.793)" fill="#A6A6A6" fill-opacity="0.5"/>
    <rect width="2.15055" height="0.460455" rx="0.230228" transform="matrix(-1 -1.74846e-07 -1.74846e-07 1 25.6406 37.248)" fill="#A6A6A6" fill-opacity="0.5"/>
    <rect width="3.07221" height="2.30227" rx="0.430476" transform="matrix(-1 -1.74846e-07 -1.74846e-07 1 37.4062 34.793)" fill="#A6A6A6" fill-opacity="0.5"/>
    <rect width="2.15055" height="0.460455" rx="0.230228" transform="matrix(-1 -1.74846e-07 -1.74846e-07 1 36.9453 37.248)" fill="#A6A6A6" fill-opacity="0.5"/>
    <rect width="3.07221" height="2.30227" rx="0.430476" transform="matrix(-1 -1.74846e-07 -1.74846e-07 1 43.0625 34.793)" fill="#A6A6A6" fill-opacity="0.5"/>
    <rect width="2.15055" height="0.460455" rx="0.230228" transform="matrix(-1 -1.74846e-07 -1.74846e-07 1 42.6016 37.248)" fill="#A6A6A6" fill-opacity="0.5"/>
    <rect width="3.07221" height="2.30227" rx="0.430476" transform="matrix(-1 -1.74846e-07 -1.74846e-07 1 48.7188 34.793)" fill="#61C3F2"/>
    <rect width="2.15055" height="0.460455" rx="0.230228" transform="matrix(-1 -1.74846e-07 -1.74846e-07 1 48.2578 37.248)" fill="#61C3F2"/>
    <rect width="3.07221" height="2.30227" rx="0.430476" transform="matrix(-1 -1.74846e-07 -1.74846e-07 1 54.375 34.793)" fill="#61C3F2"/>
    <rect width="2.15055" height="0.460455" rx="0.230228" transform="matrix(-1 -1.74846e-07 -1.74846e-07 1 53.9141 37.248)" fill="#61C3F2"/>
    <rect width="3.07221" height="2.30227" rx="0.430476" transform="matrix(-1 -1.74846e-07 -1.74846e-07 1 60.0312 34.793)" fill="#A6A6A6" fill-opacity="0.5"/>
    <rect width="2.15055" height="0.460455" rx="0.230228" transform="matrix(-1 -1.74846e-07 -1.74846e-07 1 59.5703 37.248)" fill="#A6A6A6" fill-opacity="0.5"/>
    <rect width="3.07221" height="2.30227" rx="0.430476" transform="matrix(-1 -1.74846e-07 -1.74846e-07 1 65.6875 34.793)" fill="#A6A6A6" fill-opacity="0.5"/>
    <rect width="2.15055" height="0.460455" rx="0.230228" transform="matrix(-1 -1.74846e-07 -1.74846e-07 1 65.2266 37.248)" fill="#A6A6A6" fill-opacity="0.5"/>
    <rect width="3.07221" height="2.30227" rx="0.430476" transform="matrix(-1 -1.74846e-07 -1.74846e-07 1 71.3359 34.793)" fill="#61C3F2"/>
    <rect width="2.15055" height="0.460455" rx="0.230228" transform="matrix(-1 -1.74846e-07 -1.74846e-07 1 70.875 37.248)" fill="#61C3F2"/>
    <rect width="3.07221" height="2.30227" rx="0.430476" transform="matrix(-1 -1.74846e-07 -1.74846e-07 1 76.9922 34.793)" fill="#61C3F2"/>
    <rect width="2.15055" height="0.460455" rx="0.230228" transform="matrix(-1 -1.74846e-07 -1.74846e-07 1 76.5312 37.248)" fill="#61C3F2"/>
    <rect width="3.07221" height="2.30227" rx="0.430476" transform="matrix(-1 -1.74846e-07 -1.74846e-07 1 82.6484 34.793)" fill="#A6A6A6" fill-opacity="0.5"/>
    <rect width="2.15055" height="0.460455" rx="0.230228" transform="matrix(-1 -1.74846e-07 -1.74846e-07 1 82.1875 37.248)" fill="#A6A6A6" fill-opacity="0.5"/>
    <rect width="3.07221" height="2.30227" rx="0.430476" transform="matrix(-1 -1.74846e-07 -1.74846e-07 1 88.3047 34.793)" fill="#A6A6A6" fill-opacity="0.5"/>
    <rect width="2.15055" height="0.460455" rx="0.230228" transform="matrix(-1 -1.74846e-07 -1.74846e-07 1 87.8438 37.248)" fill="#A6A6A6" fill-opacity="0.5"/>
    <rect width="3.07221" height="2.30227" rx="0.430476" transform="matrix(-1 -1.74846e-07 -1.74846e-07 1 93.9609 34.793)" fill="#61C3F2"/>
    <rect width="2.15055" height="0.460455" rx="0.230228" transform="matrix(-1 -1.74846e-07 -1.74846e-07 1 93.5 37.248)" fill="#61C3F2"/>
    <rect width="3.07221" height="2.30227" rx="0.430476" transform="matrix(-1 -1.74846e-07 -1.74846e-07 1 99.6172 34.793)" fill="#61C3F2"/>
    <rect width="2.15055" height="0.460455" rx="0.230228" transform="matrix(-1 -1.74846e-07 -1.74846e-07 1 99.1562 37.248)" fill="#61C3F2"/>
    <rect width="3.07221" height="2.30227" rx="0.430476" transform="matrix(-1 -1.74846e-07 -1.74846e-07 1 105.273 34.793)" fill="#A6A6A6" fill-opacity="0.5"/>
    <rect width="2.15055" height="0.460455" rx="0.230228" transform="matrix(-1 -1.74846e-07 -1.74846e-07 1 104.812 37.248)" fill="#A6A6A6" fill-opacity="0.5"/>
    <rect width="3.07221" height="2.30227" rx="0.430476" transform="matrix(-1 -1.74846e-07 -1.74846e-07 1 110.922 34.793)" fill="#A6A6A6" fill-opacity="0.5"/>
    <rect width="2.15055" height="0.460455" rx="0.230228" transform="matrix(-1 -1.74846e-07 -1.74846e-07 1 110.461 37.248)" fill="#A6A6A6" fill-opacity="0.5"/>
    <rect width="3.07221" height="2.30227" rx="0.430476" transform="matrix(-1 -1.74846e-07 -1.74846e-07 1 122.234 34.793)" fill="#A6A6A6" fill-opacity="0.5"/>
    <rect width="2.15055" height="0.460455" rx="0.230228" transform="matrix(-1 -1.74846e-07 -1.74846e-07 1 121.773 37.248)" fill="#A6A6A6" fill-opacity="0.5"/>
    <rect width="3.07221" height="2.30227" rx="0.430476" transform="matrix(-1 -1.74846e-07 -1.74846e-07 1 127.891 34.793)" fill="#61C3F2"/>
    <rect width="2.15055" height="0.460455" rx="0.230228" transform="matrix(-1 -1.74846e-07 -1.74846e-07 1 127.43 37.248)" fill="#61C3F2"/>
    <rect width="3.07221" height="2.30227" rx="0.430476" transform="matrix(-1 -1.74846e-07 -1.74846e-07 1 133.547 34.793)" fill="#A6A6A6" fill-opacity="0.5"/>
    <rect width="2.15055" height="0.460455" rx="0.230228" transform="matrix(-1 -1.74846e-07 -1.74846e-07 1 133.086 37.248)" fill="#A6A6A6" fill-opacity="0.5"/>
    <rect width="3.07221" height="2.30227" rx="0.430476" transform="matrix(-1 -1.74846e-07 -1.74846e-07 1 139.203 34.793)" fill="#A6A6A6" fill-opacity="0.5"/>
    <rect width="2.15055" height="0.460455" rx="0.230228" transform="matrix(-1 -1.74846e-07 -1.74846e-07 1 138.742 37.248)" fill="#A6A6A6" fill-opacity="0.5"/>
    <rect width="3.07221" height="2.30227" rx="0.430476" transform="matrix(-1 -1.74846e-07 -1.74846e-07 1 3.47656 41.584)" fill="#61C3F2"/>
    <rect width="2.15055" height="0.460455" rx="0.230228" transform="matrix(-1 -1.74846e-07 -1.74846e-07 1 3.01562 44.0391)" fill="#61C3F2"/>
    <rect width="3.07221" height="2.30227" rx="0.430476" transform="matrix(-1 -1.74846e-07 -1.74846e-07 1 9.13281 41.584)" fill="#61C3F2"/>
    <rect width="2.15055" height="0.460455" rx="0.230228" transform="matrix(-1 -1.74846e-07 -1.74846e-07 1 8.67188 44.0391)" fill="#61C3F2"/>
    <rect width="3.07221" height="2.30227" rx="0.430476" transform="matrix(-1 -1.74846e-07 -1.74846e-07 1 14.7891 41.584)" fill="#A6A6A6" fill-opacity="0.5"/>
    <rect width="2.15055" height="0.460455" rx="0.230228" transform="matrix(-1 -1.74846e-07 -1.74846e-07 1 14.3281 44.0391)" fill="#A6A6A6" fill-opacity="0.5"/>
    <rect width="3.07221" height="2.30227" rx="0.430476" transform="matrix(-1 -1.74846e-07 -1.74846e-07 1 20.4453 41.584)" fill="#A6A6A6" fill-opacity="0.5"/>
    <rect width="2.15055" height="0.460455" rx="0.230228" transform="matrix(-1 -1.74846e-07 -1.74846e-07 1 19.9844 44.0391)" fill="#A6A6A6" fill-opacity="0.5"/>
    <rect width="3.07221" height="2.30227" rx="0.430476" transform="matrix(-1 -1.74846e-07 -1.74846e-07 1 26.1016 41.584)" fill="#A6A6A6" fill-opacity="0.5"/>
    <rect width="2.15055" height="0.460455" rx="0.230228" transform="matrix(-1 -1.74846e-07 -1.74846e-07 1 25.6406 44.0391)" fill="#A6A6A6" fill-opacity="0.5"/>
    <rect width="3.07221" height="2.30227" rx="0.430476" transform="matrix(-1 -1.74846e-07 -1.74846e-07 1 37.4062 41.584)" fill="#E26CA5"/>
    <rect width="2.15055" height="0.460455" rx="0.230228" transform="matrix(-1 -1.74846e-07 -1.74846e-07 1 36.9453 44.0391)" fill="#E26CA5"/>
    <rect width="3.07221" height="2.30227" rx="0.430476" transform="matrix(-1 -1.74846e-07 -1.74846e-07 1 43.0625 41.584)" fill="#E26CA5"/>
    <rect width="2.15055" height="0.460455" rx="0.230228" transform="matrix(-1 -1.74846e-07 -1.74846e-07 1 42.6016 44.0391)" fill="#E26CA5"/>
    <rect width="3.07221" height="2.30227" rx="0.430476" transform="matrix(-1 -1.74846e-07 -1.74846e-07 1 48.7188 41.584)" fill="#A6A6A6" fill-opacity="0.5"/>
    <rect width="2.15055" height="0.460455" rx="0.230228" transform="matrix(-1 -1.74846e-07 -1.74846e-07 1 48.2578 44.0391)" fill="#A6A6A6" fill-opacity="0.5"/>
    <rect width="3.07221" height="2.30227" rx="0.430476" transform="matrix(-1 -1.74846e-07 -1.74846e-07 1 54.375 41.584)" fill="#A6A6A6" fill-opacity="0.5"/>
    <rect width="2.15055" height="0.460455" rx="0.230228" transform="matrix(-1 -1.74846e-07 -1.74846e-07 1 53.9141 44.0391)" fill="#A6A6A6" fill-opacity="0.5"/>
    <rect width="3.07221" height="2.30227" rx="0.430476" transform="matrix(-1 -1.74846e-07 -1.74846e-07 1 60.0312 41.584)" fill="#61C3F2"/>
    <rect width="2.15055" height="0.460455" rx="0.230228" transform="matrix(-1 -1.74846e-07 -1.74846e-07 1 59.5703 44.0391)" fill="#61C3F2"/>
    <rect width="3.07221" height="2.30227" rx="0.430476" transform="matrix(-1 -1.74846e-07 -1.74846e-07 1 65.6875 41.584)" fill="#61C3F2"/>
    <rect width="2.15055" height="0.460455" rx="0.230228" transform="matrix(-1 -1.74846e-07 -1.74846e-07 1 65.2266 44.0391)" fill="#61C3F2"/>
    <rect width="3.07221" height="2.30227" rx="0.430476" transform="matrix(-1 -1.74846e-07 -1.74846e-07 1 71.3359 41.584)" fill="#A6A6A6" fill-opacity="0.5"/>
    <rect width="2.15055" height="0.460455" rx="0.230228" transform="matrix(-1 -1.74846e-07 -1.74846e-07 1 70.875 44.0391)" fill="#A6A6A6" fill-opacity="0.5"/>
    <rect width="3.07221" height="2.30227" rx="0.430476" transform="matrix(-1 -1.74846e-07 -1.74846e-07 1 76.9922 41.584)" fill="#A6A6A6" fill-opacity="0.5"/>
    <rect width="2.15055" height="0.460455" rx="0.230228" transform="matrix(-1 -1.74846e-07 -1.74846e-07 1 76.5312 44.0391)" fill="#A6A6A6" fill-opacity="0.5"/>
    <rect width="3.07221" height="2.30227" rx="0.430476" transform="matrix(-1 -1.74846e-07 -1.74846e-07 1 82.6484 41.584)" fill="#61C3F2"/>
    <rect width="2.15055" height="0.460455" rx="0.230228" transform="matrix(-1 -1.74846e-07 -1.74846e-07 1 82.1875 44.0391)" fill="#61C3F2"/>
    <rect width="3.07221" height="2.30227" rx="0.430476" transform="matrix(-1 -1.74846e-07 -1.74846e-07 1 88.3047 41.584)" fill="#61C3F2"/>
    <rect width="2.15055" height="0.460455" rx="0.230228" transform="matrix(-1 -1.74846e-07 -1.74846e-07 1 87.8438 44.0391)" fill="#61C3F2"/>
    <rect width="3.07221" height="2.30227" rx="0.430476" transform="matrix(-1 -1.74846e-07 -1.74846e-07 1 93.9609 41.584)" fill="#A6A6A6" fill-opacity="0.5"/>
    <rect width="2.15055" height="0.460455" rx="0.230228" transform="matrix(-1 -1.74846e-07 -1.74846e-07 1 93.5 44.0391)" fill="#A6A6A6" fill-opacity="0.5"/>
    <rect width="3.07221" height="2.30227" rx="0.430476" transform="matrix(-1 -1.74846e-07 -1.74846e-07 1 99.6172 41.584)" fill="#A6A6A6" fill-opacity="0.5"/>
    <rect width="2.15055" height="0.460455" rx="0.230228" transform="matrix(-1 -1.74846e-07 -1.74846e-07 1 99.1562 44.0391)" fill="#A6A6A6" fill-opacity="0.5"/>
    <rect width="3.07221" height="2.30227" rx="0.430476" transform="matrix(-1 -1.74846e-07 -1.74846e-07 1 105.273 41.584)" fill="#E26CA5"/>
    <rect width="2.15055" height="0.460455" rx="0.230228" transform="matrix(-1 -1.74846e-07 -1.74846e-07 1 104.812 44.0391)" fill="#E26CA5"/>
    <rect width="3.07221" height="2.30227" rx="0.430476" transform="matrix(-1 -1.74846e-07 -1.74846e-07 1 110.922 41.584)" fill="#E26CA5"/>
    <rect width="2.15055" height="0.460455" rx="0.230228" transform="matrix(-1 -1.74846e-07 -1.74846e-07 1 110.461 44.0391)" fill="#E26CA5"/>
    <rect width="3.07221" height="2.30227" rx="0.430476" transform="matrix(-1 -1.74846e-07 -1.74846e-07 1 122.234 41.584)" fill="#A6A6A6" fill-opacity="0.5"/>
    <rect width="2.15055" height="0.460455" rx="0.230228" transform="matrix(-1 -1.74846e-07 -1.74846e-07 1 121.773 44.0391)" fill="#A6A6A6" fill-opacity="0.5"/>
    <rect width="3.07221" height="2.30227" rx="0.430476" transform="matrix(-1 -1.74846e-07 -1.74846e-07 1 127.891 41.584)" fill="#A6A6A6" fill-opacity="0.5"/>
    <rect width="2.15055" height="0.460455" rx="0.230228" transform="matrix(-1 -1.74846e-07 -1.74846e-07 1 127.43 44.0391)" fill="#A6A6A6" fill-opacity="0.5"/>
    <rect width="3.07221" height="2.30227" rx="0.430476" transform="matrix(-1 -1.74846e-07 -1.74846e-07 1 133.547 41.584)" fill="#A6A6A6" fill-opacity="0.5"/>
    <rect width="2.15055" height="0.460455" rx="0.230228" transform="matrix(-1 -1.74846e-07 -1.74846e-07 1 133.086 44.0391)" fill="#A6A6A6" fill-opacity="0.5"/>
    <rect width="3.07221" height="2.30227" rx="0.430476" transform="matrix(-1 -1.74846e-07 -1.74846e-07 1 139.203 41.584)" fill="#61C3F2"/>
    <rect width="2.15055" height="0.460455" rx="0.230228" transform="matrix(-1 -1.74846e-07 -1.74846e-07 1 138.742 44.0391)" fill="#61C3F2"/>
    <rect width="3.07221" height="2.30227" rx="0.430476" transform="matrix(-1 -1.74846e-07 -1.74846e-07 1 144.852 41.584)" fill="#61C3F2"/>
    <rect width="2.15055" height="0.460455" rx="0.230228" transform="matrix(-1 -1.74846e-07 -1.74846e-07 1 144.398 44.0391)" fill="#61C3F2"/>
    <rect width="3.07221" height="2.30227" rx="0.430476" transform="matrix(-1 -1.74846e-07 -1.74846e-07 1 3.47656 48.375)" fill="#A6A6A6" fill-opacity="0.5"/>
    <rect width="2.15055" height="0.460455" rx="0.230228" transform="matrix(-1 -1.74846e-07 -1.74846e-07 1 3.01562 50.832)" fill="#A6A6A6" fill-opacity="0.5"/>
    <rect width="3.07221" height="2.30227" rx="0.430476" transform="matrix(-1 -1.74846e-07 -1.74846e-07 1 9.13281 48.375)" fill="#A6A6A6" fill-opacity="0.5"/>
    <rect width="2.15055" height="0.460455" rx="0.230228" transform="matrix(-1 -1.74846e-07 -1.74846e-07 1 8.67188 50.832)" fill="#A6A6A6" fill-opacity="0.5"/>
    <rect width="3.07221" height="2.30227" rx="0.430476" transform="matrix(-1 -1.74846e-07 -1.74846e-07 1 14.7891 48.375)" fill="#61C3F2"/>
    <rect width="2.15055" height="0.460455" rx="0.230228" transform="matrix(-1 -1.74846e-07 -1.74846e-07 1 14.3281 50.832)" fill="#61C3F2"/>
    <rect width="3.07221" height="2.30227" rx="0.430476" transform="matrix(-1 -1.74846e-07 -1.74846e-07 1 20.4453 48.375)" fill="#61C3F2"/>
    <rect width="2.15055" height="0.460455" rx="0.230228" transform="matrix(-1 -1.74846e-07 -1.74846e-07 1 19.9844 50.832)" fill="#61C3F2"/>
    <rect width="3.07221" height="2.30227" rx="0.430476" transform="matrix(-1 -1.74846e-07 -1.74846e-07 1 26.1016 48.375)" fill="#A6A6A6" fill-opacity="0.5"/>
    <rect width="2.15055" height="0.460455" rx="0.230228" transform="matrix(-1 -1.74846e-07 -1.74846e-07 1 25.6406 50.832)" fill="#A6A6A6" fill-opacity="0.5"/>
    <rect width="3.07221" height="2.30227" rx="0.430476" transform="matrix(-1 -1.74846e-07 -1.74846e-07 1 37.4062 48.375)" fill="#A6A6A6" fill-opacity="0.5"/>
    <rect width="2.15055" height="0.460455" rx="0.230228" transform="matrix(-1 -1.74846e-07 -1.74846e-07 1 36.9453 50.832)" fill="#A6A6A6" fill-opacity="0.5"/>
    <rect width="3.07221" height="2.30227" rx="0.430476" transform="matrix(-1 -1.74846e-07 -1.74846e-07 1 43.0625 48.375)" fill="#A6A6A6" fill-opacity="0.5"/>
    <rect width="2.15055" height="0.460455" rx="0.230228" transform="matrix(-1 -1.74846e-07 -1.74846e-07 1 42.6016 50.832)" fill="#A6A6A6" fill-opacity="0.5"/>
    <rect width="3.07221" height="2.30227" rx="0.430476" transform="matrix(-1 -1.74846e-07 -1.74846e-07 1 48.7188 48.375)" fill="#61C3F2"/>
    <rect width="2.15055" height="0.460455" rx="0.230228" transform="matrix(-1 -1.74846e-07 -1.74846e-07 1 48.2578 50.832)" fill="#61C3F2"/>
    <rect width="3.07221" height="2.30227" rx="0.430476" transform="matrix(-1 -1.74846e-07 -1.74846e-07 1 54.375 48.375)" fill="#61C3F2"/>
    <rect width="2.15055" height="0.460455" rx="0.230228" transform="matrix(-1 -1.74846e-07 -1.74846e-07 1 53.9141 50.832)" fill="#61C3F2"/>
    <rect width="3.07221" height="2.30227" rx="0.430476" transform="matrix(-1 -1.74846e-07 -1.74846e-07 1 60.0312 48.375)" fill="#A6A6A6" fill-opacity="0.5"/>
    <rect width="2.15055" height="0.460455" rx="0.230228" transform="matrix(-1 -1.74846e-07 -1.74846e-07 1 59.5703 50.832)" fill="#A6A6A6" fill-opacity="0.5"/>
    <rect width="3.07221" height="2.30227" rx="0.430476" transform="matrix(-1 -1.74846e-07 -1.74846e-07 1 65.6875 48.375)" fill="#A6A6A6" fill-opacity="0.5"/>
    <rect width="2.15055" height="0.460455" rx="0.230228" transform="matrix(-1 -1.74846e-07 -1.74846e-07 1 65.2266 50.832)" fill="#A6A6A6" fill-opacity="0.5"/>
    <rect width="3.07221" height="2.30227" rx="0.430476" transform="matrix(-1 -1.74846e-07 -1.74846e-07 1 71.3359 48.375)" fill="#564CA3"/>
    <rect width="2.15055" height="0.460455" rx="0.230228" transform="matrix(-1 -1.74846e-07 -1.74846e-07 1 70.875 50.832)" fill="#564CA3"/>
    <rect width="3.07221" height="2.30227" rx="0.430476" transform="matrix(-1 -1.74846e-07 -1.74846e-07 1 76.9922 48.375)" fill="#564CA3"/>
    <rect width="2.15055" height="0.460455" rx="0.230228" transform="matrix(-1 -1.74846e-07 -1.74846e-07 1 76.5312 50.832)" fill="#564CA3"/>
    <rect width="3.07221" height="2.30227" rx="0.430476" transform="matrix(-1 -1.74846e-07 -1.74846e-07 1 82.6484 48.375)" fill="#A6A6A6" fill-opacity="0.5"/>
    <rect width="2.15055" height="0.460455" rx="0.230228" transform="matrix(-1 -1.74846e-07 -1.74846e-07 1 82.1875 50.832)" fill="#A6A6A6" fill-opacity="0.5"/>
    <rect width="3.07221" height="2.30227" rx="0.430476" transform="matrix(-1 -1.74846e-07 -1.74846e-07 1 88.3047 48.375)" fill="#A6A6A6" fill-opacity="0.5"/>
    <rect width="2.15055" height="0.460455" rx="0.230228" transform="matrix(-1 -1.74846e-07 -1.74846e-07 1 87.8438 50.832)" fill="#A6A6A6" fill-opacity="0.5"/>
    <rect width="3.07221" height="2.30227" rx="0.430476" transform="matrix(-1 -1.74846e-07 -1.74846e-07 1 93.9609 48.375)" fill="#61C3F2"/>
    <rect width="2.15055" height="0.460455" rx="0.230228" transform="matrix(-1 -1.74846e-07 -1.74846e-07 1 93.5 50.832)" fill="#61C3F2"/>
    <rect width="3.07221" height="2.30227" rx="0.430476" transform="matrix(-1 -1.74846e-07 -1.74846e-07 1 99.6172 48.375)" fill="#61C3F2"/>
    <rect width="2.15055" height="0.460455" rx="0.230228" transform="matrix(-1 -1.74846e-07 -1.74846e-07 1 99.1562 50.832)" fill="#61C3F2"/>
    <rect width="3.07221" height="2.30227" rx="0.430476" transform="matrix(-1 -1.74846e-07 -1.74846e-07 1 105.273 48.375)" fill="#A6A6A6" fill-opacity="0.5"/>
    <rect width="2.15055" height="0.460455" rx="0.230228" transform="matrix(-1 -1.74846e-07 -1.74846e-07 1 104.812 50.832)" fill="#A6A6A6" fill-opacity="0.5"/>
    <rect width="3.07221" height="2.30227" rx="0.430476" transform="matrix(-1 -1.74846e-07 -1.74846e-07 1 110.922 48.375)" fill="#A6A6A6" fill-opacity="0.5"/>
    <rect width="2.15055" height="0.460455" rx="0.230228" transform="matrix(-1 -1.74846e-07 -1.74846e-07 1 110.461 50.832)" fill="#A6A6A6" fill-opacity="0.5"/>
    <rect width="3.07221" height="2.30227" rx="0.430476" transform="matrix(-1 -1.74846e-07 -1.74846e-07 1 122.234 48.375)" fill="#A6A6A6" fill-opacity="0.5"/>
    <rect width="2.15055" height="0.460455" rx="0.230228" transform="matrix(-1 -1.74846e-07 -1.74846e-07 1 121.773 50.832)" fill="#A6A6A6" fill-opacity="0.5"/>
    <rect width="3.07221" height="2.30227" rx="0.430476" transform="matrix(-1 -1.74846e-07 -1.74846e-07 1 127.891 48.375)" fill="#61C3F2"/>
    <rect width="2.15055" height="0.460455" rx="0.230228" transform="matrix(-1 -1.74846e-07 -1.74846e-07 1 127.43 50.832)" fill="#61C3F2"/>
    <rect width="3.07221" height="2.30227" rx="0.430476" transform="matrix(-1 -1.74846e-07 -1.74846e-07 1 133.547 48.375)" fill="#61C3F2"/>
    <rect width="2.15055" height="0.460455" rx="0.230228" transform="matrix(-1 -1.74846e-07 -1.74846e-07 1 133.086 50.832)" fill="#61C3F2"/>
    <rect width="3.07221" height="2.30227" rx="0.430476" transform="matrix(-1 -1.74846e-07 -1.74846e-07 1 139.203 48.375)" fill="#A6A6A6" fill-opacity="0.5"/>
    <rect width="2.15055" height="0.460455" rx="0.230228" transform="matrix(-1 -1.74846e-07 -1.74846e-07 1 138.742 50.832)" fill="#A6A6A6" fill-opacity="0.5"/>
    <rect width="3.07221" height="2.30227" rx="0.430476" transform="matrix(-1 -1.74846e-07 -1.74846e-07 1 144.852 48.375)" fill="#A6A6A6" fill-opacity="0.5"/>
    <rect width="2.15055" height="0.460455" rx="0.230228" transform="matrix(-1 -1.74846e-07 -1.74846e-07 1 144.398 50.832)" fill="#A6A6A6" fill-opacity="0.5"/>
    <rect width="3.07221" height="2.30227" rx="0.430476" transform="matrix(-1 -1.74846e-07 -1.74846e-07 1 3.47656 55.166)" fill="#61C3F2"/>
    <rect width="2.15055" height="0.460455" rx="0.230228" transform="matrix(-1 -1.74846e-07 -1.74846e-07 1 3.01562 57.6211)" fill="#61C3F2"/>
    <rect width="3.07221" height="2.30227" rx="0.430476" transform="matrix(-1 -1.74846e-07 -1.74846e-07 1 9.13281 55.166)" fill="#61C3F2"/>
    <rect width="2.15055" height="0.460455" rx="0.230228" transform="matrix(-1 -1.74846e-07 -1.74846e-07 1 8.67188 57.6211)" fill="#61C3F2"/>
    <rect width="3.07221" height="2.30227" rx="0.430476" transform="matrix(-1 -1.74846e-07 -1.74846e-07 1 14.7891 55.166)" fill="#A6A6A6" fill-opacity="0.5"/>
    <rect width="2.15055" height="0.460455" rx="0.230228" transform="matrix(-1 -1.74846e-07 -1.74846e-07 1 14.3281 57.6211)" fill="#A6A6A6" fill-opacity="0.5"/>
    <rect width="3.07221" height="2.30227" rx="0.430476" transform="matrix(-1 -1.74846e-07 -1.74846e-07 1 20.4453 55.166)" fill="#A6A6A6" fill-opacity="0.5"/>
    <rect width="2.15055" height="0.460455" rx="0.230228" transform="matrix(-1 -1.74846e-07 -1.74846e-07 1 19.9844 57.6211)" fill="#A6A6A6" fill-opacity="0.5"/>
    <rect width="3.07221" height="2.30227" rx="0.430476" transform="matrix(-1 -1.74846e-07 -1.74846e-07 1 26.1016 55.166)" fill="#A6A6A6" fill-opacity="0.5"/>
    <rect width="2.15055" height="0.460455" rx="0.230228" transform="matrix(-1 -1.74846e-07 -1.74846e-07 1 25.6406 57.6211)" fill="#A6A6A6" fill-opacity="0.5"/>
    <rect width="3.07221" height="2.30227" rx="0.430476" transform="matrix(-1 -1.74846e-07 -1.74846e-07 1 37.4062 55.166)" fill="#15D2BC"/>
    <rect width="2.15055" height="0.460455" rx="0.230228" transform="matrix(-1 -1.74846e-07 -1.74846e-07 1 36.9453 57.6211)" fill="#15D2BC"/>
    <rect width="3.07221" height="2.30227" rx="0.430476" transform="matrix(-1 -1.74846e-07 -1.74846e-07 1 43.0625 55.166)" fill="#15D2BC"/>
    <rect width="2.15055" height="0.460455" rx="0.230228" transform="matrix(-1 -1.74846e-07 -1.74846e-07 1 42.6016 57.6211)" fill="#15D2BC"/>
    <rect width="3.07221" height="2.30227" rx="0.430476" transform="matrix(-1 -1.74846e-07 -1.74846e-07 1 48.7188 55.166)" fill="#A6A6A6" fill-opacity="0.5"/>
    <rect width="2.15055" height="0.460455" rx="0.230228" transform="matrix(-1 -1.74846e-07 -1.74846e-07 1 48.2578 57.6211)" fill="#A6A6A6" fill-opacity="0.5"/>
    <rect width="3.07221" height="2.30227" rx="0.430476" transform="matrix(-1 -1.74846e-07 -1.74846e-07 1 54.375 55.166)" fill="#A6A6A6" fill-opacity="0.5"/>
    <rect width="2.15055" height="0.460455" rx="0.230228" transform="matrix(-1 -1.74846e-07 -1.74846e-07 1 53.9141 57.6211)" fill="#A6A6A6" fill-opacity="0.5"/>
    <rect width="3.07221" height="2.30227" rx="0.430476" transform="matrix(-1 -1.74846e-07 -1.74846e-07 1 60.0312 55.166)" fill="#61C3F2"/>
    <rect width="2.15055" height="0.460455" rx="0.230228" transform="matrix(-1 -1.74846e-07 -1.74846e-07 1 59.5703 57.6211)" fill="#61C3F2"/>
    <rect width="3.07221" height="2.30227" rx="0.430476" transform="matrix(-1 -1.74846e-07 -1.74846e-07 1 65.6875 55.166)" fill="#61C3F2"/>
    <rect width="2.15055" height="0.460455" rx="0.230228" transform="matrix(-1 -1.74846e-07 -1.74846e-07 1 65.2266 57.6211)" fill="#61C3F2"/>
    <rect width="3.07221" height="2.30227" rx="0.430476" transform="matrix(-1 -1.74846e-07 -1.74846e-07 1 71.3359 55.166)" fill="#A6A6A6" fill-opacity="0.5"/>
    <rect width="2.15055" height="0.460455" rx="0.230228" transform="matrix(-1 -1.74846e-07 -1.74846e-07 1 70.875 57.6211)" fill="#A6A6A6" fill-opacity="0.5"/>
    <rect width="3.07221" height="2.30227" rx="0.430476" transform="matrix(-1 -1.74846e-07 -1.74846e-07 1 76.9922 55.166)" fill="#A6A6A6" fill-opacity="0.5"/>
    <rect width="2.15055" height="0.460455" rx="0.230228" transform="matrix(-1 -1.74846e-07 -1.74846e-07 1 76.5312 57.6211)" fill="#A6A6A6" fill-opacity="0.5"/>
    <rect width="3.07221" height="2.30227" rx="0.430476" transform="matrix(-1 -1.74846e-07 -1.74846e-07 1 82.6484 55.166)" fill="#61C3F2"/>
    <rect width="2.15055" height="0.460455" rx="0.230228" transform="matrix(-1 -1.74846e-07 -1.74846e-07 1 82.1875 57.6211)" fill="#61C3F2"/>
    <rect width="3.07221" height="2.30227" rx="0.430476" transform="matrix(-1 -1.74846e-07 -1.74846e-07 1 88.3047 55.166)" fill="#61C3F2"/>
    <rect width="2.15055" height="0.460455" rx="0.230228" transform="matrix(-1 -1.74846e-07 -1.74846e-07 1 87.8438 57.6211)" fill="#61C3F2"/>
    <rect width="3.07221" height="2.30227" rx="0.430476" transform="matrix(-1 -1.74846e-07 -1.74846e-07 1 93.9609 55.166)" fill="#A6A6A6" fill-opacity="0.5"/>
    <rect width="2.15055" height="0.460455" rx="0.230228" transform="matrix(-1 -1.74846e-07 -1.74846e-07 1 93.5 57.6211)" fill="#A6A6A6" fill-opacity="0.5"/>
    <rect width="3.07221" height="2.30227" rx="0.430476" transform="matrix(-1 -1.74846e-07 -1.74846e-07 1 99.6172 55.166)" fill="#A6A6A6" fill-opacity="0.5"/>
    <rect width="2.15055" height="0.460455" rx="0.230228" transform="matrix(-1 -1.74846e-07 -1.74846e-07 1 99.1562 57.6211)" fill="#A6A6A6" fill-opacity="0.5"/>
    <rect width="3.07221" height="2.30227" rx="0.430476" transform="matrix(-1 -1.74846e-07 -1.74846e-07 1 105.273 55.166)" fill="#15D2BC"/>
    <rect width="2.15055" height="0.460455" rx="0.230228" transform="matrix(-1 -1.74846e-07 -1.74846e-07 1 104.812 57.6211)" fill="#15D2BC"/>
    <rect width="3.07221" height="2.30227" rx="0.430476" transform="matrix(-1 -1.74846e-07 -1.74846e-07 1 110.922 55.166)" fill="#15D2BC"/>
    <rect width="2.15055" height="0.460455" rx="0.230228" transform="matrix(-1 -1.74846e-07 -1.74846e-07 1 110.461 57.6211)" fill="#15D2BC"/>
    <rect width="3.07221" height="2.30227" rx="0.430476" transform="matrix(-1 -1.74846e-07 -1.74846e-07 1 122.234 55.166)" fill="#A6A6A6" fill-opacity="0.5"/>
    <rect width="2.15055" height="0.460455" rx="0.230228" transform="matrix(-1 -1.74846e-07 -1.74846e-07 1 121.773 57.6211)" fill="#A6A6A6" fill-opacity="0.5"/>
    <rect width="3.07221" height="2.30227" rx="0.430476" transform="matrix(-1 -1.74846e-07 -1.74846e-07 1 127.891 55.166)" fill="#A6A6A6" fill-opacity="0.5"/>
    <rect width="2.15055" height="0.460455" rx="0.230228" transform="matrix(-1 -1.74846e-07 -1.74846e-07 1 127.43 57.6211)" fill="#A6A6A6" fill-opacity="0.5"/>
    <rect width="3.07221" height="2.30227" rx="0.430476" transform="matrix(-1 -1.74846e-07 -1.74846e-07 1 133.547 55.166)" fill="#A6A6A6" fill-opacity="0.5"/>
    <rect width="2.15055" height="0.460455" rx="0.230228" transform="matrix(-1 -1.74846e-07 -1.74846e-07 1 133.086 57.6211)" fill="#A6A6A6" fill-opacity="0.5"/>
    <rect width="3.07221" height="2.30227" rx="0.430476" transform="matrix(-1 -1.74846e-07 -1.74846e-07 1 139.203 55.166)" fill="#61C3F2"/>
    <rect width="2.15055" height="0.460455" rx="0.230228" transform="matrix(-1 -1.74846e-07 -1.74846e-07 1 138.742 57.6211)" fill="#61C3F2"/>
    <rect width="3.07221" height="2.30227" rx="0.430476" transform="matrix(-1 -1.74846e-07 -1.74846e-07 1 144.852 55.166)" fill="#61C3F2"/>
    <rect width="2.15055" height="0.460455" rx="0.230228" transform="matrix(-1 -1.74846e-07 -1.74846e-07 1 144.398 57.6211)" fill="#61C3F2"/>
    <rect width="3.07221" height="2.30227" rx="0.430476" transform="matrix(-1 -1.74846e-07 -1.74846e-07 1 3.47656 61.9551)" fill="#A6A6A6" fill-opacity="0.5"/>
    <rect width="2.15055" height="0.460455" rx="0.230228" transform="matrix(-1 -1.74846e-07 -1.74846e-07 1 3.01562 64.4102)" fill="#A6A6A6" fill-opacity="0.5"/>
    <rect width="3.07221" height="2.30227" rx="0.430476" transform="matrix(-1 -1.74846e-07 -1.74846e-07 1 9.13281 61.9551)" fill="#A6A6A6" fill-opacity="0.5"/>
    <rect width="2.15055" height="0.460455" rx="0.230228" transform="matrix(-1 -1.74846e-07 -1.74846e-07 1 8.67188 64.4102)" fill="#A6A6A6" fill-opacity="0.5"/>
    <rect width="3.07221" height="2.30227" rx="0.430476" transform="matrix(-1 -1.74846e-07 -1.74846e-07 1 14.7891 61.9551)" fill="#61C3F2"/>
    <rect width="2.15055" height="0.460455" rx="0.230228" transform="matrix(-1 -1.74846e-07 -1.74846e-07 1 14.3281 64.4102)" fill="#61C3F2"/>
    <rect width="3.07221" height="2.30227" rx="0.430476" transform="matrix(-1 -1.74846e-07 -1.74846e-07 1 20.4453 61.9551)" fill="#61C3F2"/>
    <rect width="2.15055" height="0.460455" rx="0.230228" transform="matrix(-1 -1.74846e-07 -1.74846e-07 1 19.9844 64.4102)" fill="#61C3F2"/>
    <rect width="3.07221" height="2.30227" rx="0.430476" transform="matrix(-1 -1.74846e-07 -1.74846e-07 1 26.1016 61.9551)" fill="#A6A6A6" fill-opacity="0.5"/>
    <rect width="2.15055" height="0.460455" rx="0.230228" transform="matrix(-1 -1.74846e-07 -1.74846e-07 1 25.6406 64.4102)" fill="#A6A6A6" fill-opacity="0.5"/>
    <rect width="3.07221" height="2.30227" rx="0.430476" transform="matrix(-1 -1.74846e-07 -1.74846e-07 1 37.4062 61.9551)" fill="#A6A6A6" fill-opacity="0.5"/>
    <rect width="2.15055" height="0.460455" rx="0.230228" transform="matrix(-1 -1.74846e-07 -1.74846e-07 1 36.9453 64.4102)" fill="#A6A6A6" fill-opacity="0.5"/>
    <rect width="3.07221" height="2.30227" rx="0.430476" transform="matrix(-1 -1.74846e-07 -1.74846e-07 1 43.0625 61.9551)" fill="#A6A6A6" fill-opacity="0.5"/>
    <rect width="2.15055" height="0.460455" rx="0.230228" transform="matrix(-1 -1.74846e-07 -1.74846e-07 1 42.6016 64.4102)" fill="#A6A6A6" fill-opacity="0.5"/>
    <rect width="3.07221" height="2.30227" rx="0.430476" transform="matrix(-1 -1.74846e-07 -1.74846e-07 1 48.7188 61.9551)" fill="#61C3F2"/>
    <rect width="2.15055" height="0.460455" rx="0.230228" transform="matrix(-1 -1.74846e-07 -1.74846e-07 1 48.2578 64.4102)" fill="#61C3F2"/>
    <rect width="3.07221" height="2.30227" rx="0.430476" transform="matrix(-1 -1.74846e-07 -1.74846e-07 1 54.375 61.9551)" fill="#61C3F2"/>
    <rect width="2.15055" height="0.460455" rx="0.230228" transform="matrix(-1 -1.74846e-07 -1.74846e-07 1 53.9141 64.4102)" fill="#61C3F2"/>
    <rect width="3.07221" height="2.30227" rx="0.430476" transform="matrix(-1 -1.74846e-07 -1.74846e-07 1 60.0312 61.9551)" fill="#A6A6A6" fill-opacity="0.5"/>
    <rect width="2.15055" height="0.460455" rx="0.230228" transform="matrix(-1 -1.74846e-07 -1.74846e-07 1 59.5703 64.4102)" fill="#A6A6A6" fill-opacity="0.5"/>
    <rect width="3.07221" height="2.30227" rx="0.430476" transform="matrix(-1 -1.74846e-07 -1.74846e-07 1 65.6875 61.9551)" fill="#A6A6A6" fill-opacity="0.5"/>
    <rect width="2.15055" height="0.460455" rx="0.230228" transform="matrix(-1 -1.74846e-07 -1.74846e-07 1 65.2266 64.4102)" fill="#A6A6A6" fill-opacity="0.5"/>
    <rect width="3.07221" height="2.30227" rx="0.430476" transform="matrix(-1 -1.74846e-07 -1.74846e-07 1 71.3359 61.9551)" fill="#61C3F2"/>
    <rect width="2.15055" height="0.460455" rx="0.230228" transform="matrix(-1 -1.74846e-07 -1.74846e-07 1 70.875 64.4102)" fill="#61C3F2"/>
    <rect width="3.07221" height="2.30227" rx="0.430476" transform="matrix(-1 -1.74846e-07 -1.74846e-07 1 76.9922 61.9551)" fill="#61C3F2"/>
    <rect width="2.15055" height="0.460455" rx="0.230228" transform="matrix(-1 -1.74846e-07 -1.74846e-07 1 76.5312 64.4102)" fill="#61C3F2"/>
    <rect width="3.07221" height="2.30227" rx="0.430476" transform="matrix(-1 -1.74846e-07 -1.74846e-07 1 82.6484 61.9551)" fill="#A6A6A6" fill-opacity="0.5"/>
    <rect width="2.15055" height="0.460455" rx="0.230228" transform="matrix(-1 -1.74846e-07 -1.74846e-07 1 82.1875 64.4102)" fill="#A6A6A6" fill-opacity="0.5"/>
    <rect width="3.07221" height="2.30227" rx="0.430476" transform="matrix(-1 -1.74846e-07 -1.74846e-07 1 88.3047 61.9551)" fill="#A6A6A6" fill-opacity="0.5"/>
    <rect width="2.15055" height="0.460455" rx="0.230228" transform="matrix(-1 -1.74846e-07 -1.74846e-07 1 87.8438 64.4102)" fill="#A6A6A6" fill-opacity="0.5"/>
    <rect width="3.07221" height="2.30227" rx="0.430476" transform="matrix(-1 -1.74846e-07 -1.74846e-07 1 93.9609 61.9551)" fill="#61C3F2"/>
    <rect width="2.15055" height="0.460455" rx="0.230228" transform="matrix(-1 -1.74846e-07 -1.74846e-07 1 93.5 64.4102)" fill="#61C3F2"/>
    <rect width="3.07221" height="2.30227" rx="0.430476" transform="matrix(-1 -1.74846e-07 -1.74846e-07 1 99.6172 61.9551)" fill="#61C3F2"/>
    <rect width="2.15055" height="0.460455" rx="0.230228" transform="matrix(-1 -1.74846e-07 -1.74846e-07 1 99.1562 64.4102)" fill="#61C3F2"/>
    <rect width="3.07221" height="2.30227" rx="0.430476" transform="matrix(-1 -1.74846e-07 -1.74846e-07 1 105.273 61.9551)" fill="#A6A6A6" fill-opacity="0.5"/>
    <rect width="2.15055" height="0.460455" rx="0.230228" transform="matrix(-1 -1.74846e-07 -1.74846e-07 1 104.812 64.4102)" fill="#A6A6A6" fill-opacity="0.5"/>
    <rect width="3.07221" height="2.30227" rx="0.430476" transform="matrix(-1 -1.74846e-07 -1.74846e-07 1 110.922 61.9551)" fill="#A6A6A6" fill-opacity="0.5"/>
    <rect width="2.15055" height="0.460455" rx="0.230228" transform="matrix(-1 -1.74846e-07 -1.74846e-07 1 110.461 64.4102)" fill="#A6A6A6" fill-opacity="0.5"/>
    <rect width="3.07221" height="2.30227" rx="0.430476" transform="matrix(-1 -1.74846e-07 -1.74846e-07 1 122.234 61.9551)" fill="#A6A6A6" fill-opacity="0.5"/>
    <rect width="2.15055" height="0.460455" rx="0.230228" transform="matrix(-1 -1.74846e-07 -1.74846e-07 1 121.773 64.4102)" fill="#A6A6A6" fill-opacity="0.5"/>
    <rect width="3.07221" height="2.30227" rx="0.430476" transform="matrix(-1 -1.74846e-07 -1.74846e-07 1 127.891 61.9551)" fill="#61C3F2"/>
    <rect width="2.15055" height="0.460455" rx="0.230228" transform="matrix(-1 -1.74846e-07 -1.74846e-07 1 127.43 64.4102)" fill="#61C3F2"/>
    <rect width="3.07221" height="2.30227" rx="0.430476" transform="matrix(-1 -1.74846e-07 -1.74846e-07 1 133.547 61.9551)" fill="#61C3F2"/>
    <rect width="2.15055" height="0.460455" rx="0.230228" transform="matrix(-1 -1.74846e-07 -1.74846e-07 1 133.086 64.4102)" fill="#61C3F2"/>
    <rect width="3.07221" height="2.30227" rx="0.430476" transform="matrix(-1 -1.74846e-07 -1.74846e-07 1 139.203 61.9551)" fill="#A6A6A6" fill-opacity="0.5"/>
    <rect width="2.15055" height="0.460455" rx="0.230228" transform="matrix(-1 -1.74846e-07 -1.74846e-07 1 138.742 64.4102)" fill="#A6A6A6" fill-opacity="0.5"/>
    <rect width="3.07221" height="2.30227" rx="0.430476" transform="matrix(-1 -1.74846e-07 -1.74846e-07 1 144.852 61.9551)" fill="#A6A6A6" fill-opacity="0.5"/>
    <rect width="2.15055" height="0.460455" rx="0.230228" transform="matrix(-1 -1.74846e-07 -1.74846e-07 1 144.398 64.4102)" fill="#A6A6A6" fill-opacity="0.5"/>
    <rect width="3.07221" height="2.30227" rx="0.430476" transform="matrix(-1 -1.74846e-07 -1.74846e-07 1 3.47656 68.7461)" fill="#61C3F2"/>
    <rect width="2.15055" height="0.460455" rx="0.230228" transform="matrix(-1 -1.74846e-07 -1.74846e-07 1 3.01562 71.2031)" fill="#61C3F2"/>
    <rect width="3.07221" height="2.30227" rx="0.430476" transform="matrix(-1 -1.74846e-07 -1.74846e-07 1 9.13281 68.7461)" fill="#61C3F2"/>
    <rect width="2.15055" height="0.460455" rx="0.230228" transform="matrix(-1 -1.74846e-07 -1.74846e-07 1 8.67188 71.2031)" fill="#61C3F2"/>
    <rect width="3.07221" height="2.30227" rx="0.430476" transform="matrix(-1 -1.74846e-07 -1.74846e-07 1 14.7891 68.7461)" fill="#A6A6A6" fill-opacity="0.5"/>
    <rect width="2.15055" height="0.460455" rx="0.230228" transform="matrix(-1 -1.74846e-07 -1.74846e-07 1 14.3281 71.2031)" fill="#A6A6A6" fill-opacity="0.5"/>
    <rect width="3.07221" height="2.30227" rx="0.430476" transform="matrix(-1 -1.74846e-07 -1.74846e-07 1 20.4453 68.7461)" fill="#A6A6A6" fill-opacity="0.5"/>
    <rect width="2.15055" height="0.460455" rx="0.230228" transform="matrix(-1 -1.74846e-07 -1.74846e-07 1 19.9844 71.2031)" fill="#A6A6A6" fill-opacity="0.5"/>
    <rect width="3.07221" height="2.30227" rx="0.430476" transform="matrix(-1 -1.74846e-07 -1.74846e-07 1 26.1016 68.7461)" fill="#A6A6A6" fill-opacity="0.5"/>
    <rect width="2.15055" height="0.460455" rx="0.230228" transform="matrix(-1 -1.74846e-07 -1.74846e-07 1 25.6406 71.2031)" fill="#A6A6A6" fill-opacity="0.5"/>
    <rect width="3.07221" height="2.30227" rx="0.430476" transform="matrix(-1 -1.74846e-07 -1.74846e-07 1 37.4062 68.7461)" fill="#61C3F2"/>
    <rect width="2.15055" height="0.460455" rx="0.230228" transform="matrix(-1 -1.74846e-07 -1.74846e-07 1 36.9453 71.2031)" fill="#61C3F2"/>
    <rect width="3.07221" height="2.30227" rx="0.430476" transform="matrix(-1 -1.74846e-07 -1.74846e-07 1 43.0625 68.7461)" fill="#61C3F2"/>
    <rect width="2.15055" height="0.460455" rx="0.230228" transform="matrix(-1 -1.74846e-07 -1.74846e-07 1 42.6016 71.2031)" fill="#61C3F2"/>
    <rect width="3.07221" height="2.30227" rx="0.430476" transform="matrix(-1 -1.74846e-07 -1.74846e-07 1 48.7188 68.7461)" fill="#A6A6A6" fill-opacity="0.5"/>
    <rect width="2.15055" height="0.460455" rx="0.230228" transform="matrix(-1 -1.74846e-07 -1.74846e-07 1 48.2578 71.2031)" fill="#A6A6A6" fill-opacity="0.5"/>
    <rect width="3.07221" height="2.30227" rx="0.430476" transform="matrix(-1 -1.74846e-07 -1.74846e-07 1 54.375 68.7461)" fill="#A6A6A6" fill-opacity="0.5"/>
    <rect width="2.15055" height="0.460455" rx="0.230228" transform="matrix(-1 -1.74846e-07 -1.74846e-07 1 53.9141 71.2031)" fill="#A6A6A6" fill-opacity="0.5"/>
    <rect width="3.07221" height="2.30227" rx="0.430476" transform="matrix(-1 -1.74846e-07 -1.74846e-07 1 60.0312 68.7461)" fill="#61C3F2"/>
    <rect width="2.15055" height="0.460455" rx="0.230228" transform="matrix(-1 -1.74846e-07 -1.74846e-07 1 59.5703 71.2031)" fill="#61C3F2"/>
    <rect width="3.07221" height="2.30227" rx="0.430476" transform="matrix(-1 -1.74846e-07 -1.74846e-07 1 65.6875 68.7461)" fill="#61C3F2"/>
    <rect width="2.15055" height="0.460455" rx="0.230228" transform="matrix(-1 -1.74846e-07 -1.74846e-07 1 65.2266 71.2031)" fill="#61C3F2"/>
    <rect width="3.07221" height="2.30227" rx="0.430476" transform="matrix(-1 -1.74846e-07 -1.74846e-07 1 71.3359 68.7461)" fill="#A6A6A6" fill-opacity="0.5"/>
    <rect width="2.15055" height="0.460455" rx="0.230228" transform="matrix(-1 -1.74846e-07 -1.74846e-07 1 70.875 71.2031)" fill="#A6A6A6" fill-opacity="0.5"/>
    <rect width="3.07221" height="2.30227" rx="0.430476" transform="matrix(-1 -1.74846e-07 -1.74846e-07 1 76.9922 68.7461)" fill="#A6A6A6" fill-opacity="0.5"/>
    <rect width="2.15055" height="0.460455" rx="0.230228" transform="matrix(-1 -1.74846e-07 -1.74846e-07 1 76.5312 71.2031)" fill="#A6A6A6" fill-opacity="0.5"/>
    <rect width="3.07221" height="2.30227" rx="0.430476" transform="matrix(-1 -1.74846e-07 -1.74846e-07 1 82.6484 68.7461)" fill="#61C3F2"/>
    <rect width="2.15055" height="0.460455" rx="0.230228" transform="matrix(-1 -1.74846e-07 -1.74846e-07 1 82.1875 71.2031)" fill="#61C3F2"/>
    <rect width="3.07221" height="2.30227" rx="0.430476" transform="matrix(-1 -1.74846e-07 -1.74846e-07 1 88.3047 68.7461)" fill="#61C3F2"/>
    <rect width="2.15055" height="0.460455" rx="0.230228" transform="matrix(-1 -1.74846e-07 -1.74846e-07 1 87.8438 71.2031)" fill="#61C3F2"/>
    <rect width="3.07221" height="2.30227" rx="0.430476" transform="matrix(-1 -1.74846e-07 -1.74846e-07 1 93.9609 68.7461)" fill="#A6A6A6" fill-opacity="0.5"/>
    <rect width="2.15055" height="0.460455" rx="0.230228" transform="matrix(-1 -1.74846e-07 -1.74846e-07 1 93.5 71.2031)" fill="#A6A6A6" fill-opacity="0.5"/>
    <rect width="3.07221" height="2.30227" rx="0.430476" transform="matrix(-1 -1.74846e-07 -1.74846e-07 1 99.6172 68.7461)" fill="#A6A6A6" fill-opacity="0.5"/>
    <rect width="2.15055" height="0.460455" rx="0.230228" transform="matrix(-1 -1.74846e-07 -1.74846e-07 1 99.1562 71.2031)" fill="#A6A6A6" fill-opacity="0.5"/>
    <rect width="3.07221" height="2.30227" rx="0.430476" transform="matrix(-1 -1.74846e-07 -1.74846e-07 1 105.273 68.7461)" fill="#61C3F2"/>
    <rect width="2.15055" height="0.460455" rx="0.230228" transform="matrix(-1 -1.74846e-07 -1.74846e-07 1 104.812 71.2031)" fill="#61C3F2"/>
    <rect width="3.07221" height="2.30227" rx="0.430476" transform="matrix(-1 -1.74846e-07 -1.74846e-07 1 110.922 68.7461)" fill="#61C3F2"/>
    <rect width="2.15055" height="0.460455" rx="0.230228" transform="matrix(-1 -1.74846e-07 -1.74846e-07 1 110.461 71.2031)" fill="#61C3F2"/>
    <rect width="3.07221" height="2.30227" rx="0.430476" transform="matrix(-1 -1.74846e-07 -1.74846e-07 1 122.234 68.7461)" fill="#A6A6A6" fill-opacity="0.5"/>
    <rect width="2.15055" height="0.460455" rx="0.230228" transform="matrix(-1 -1.74846e-07 -1.74846e-07 1 121.773 71.2031)" fill="#A6A6A6" fill-opacity="0.5"/>
    <rect width="3.07221" height="2.30227" rx="0.430476" transform="matrix(-1 -1.74846e-07 -1.74846e-07 1 127.891 68.7461)" fill="#A6A6A6" fill-opacity="0.5"/>
    <rect width="2.15055" height="0.460455" rx="0.230228" transform="matrix(-1 -1.74846e-07 -1.74846e-07 1 127.43 71.2031)" fill="#A6A6A6" fill-opacity="0.5"/>
    <rect width="3.07221" height="2.30227" rx="0.430476" transform="matrix(-1 -1.74846e-07 -1.74846e-07 1 133.547 68.7461)" fill="#A6A6A6" fill-opacity="0.5"/>
    <rect width="2.15055" height="0.460455" rx="0.230228" transform="matrix(-1 -1.74846e-07 -1.74846e-07 1 133.086 71.2031)" fill="#A6A6A6" fill-opacity="0.5"/>
    <rect width="3.07221" height="2.30227" rx="0.430476" transform="matrix(-1 -1.74846e-07 -1.74846e-07 1 139.203 68.7461)" fill="#61C3F2"/>
    <rect width="2.15055" height="0.460455" rx="0.230228" transform="matrix(-1 -1.74846e-07 -1.74846e-07 1 138.742 71.2031)" fill="#61C3F2"/>
    <rect width="3.07221" height="2.30227" rx="0.430476" transform="matrix(-1 -1.74846e-07 -1.74846e-07 1 144.852 68.7461)" fill="#61C3F2"/>
    <rect width="2.15055" height="0.460455" rx="0.230228" transform="matrix(-1 -1.74846e-07 -1.74846e-07 1 144.398 71.2031)" fill="#61C3F2"/>
    <rect width="3.07221" height="2.30227" rx="0.430476" transform="matrix(-1 -1.74846e-07 -1.74846e-07 1 3.47656 75.5371)" fill="#A6A6A6" fill-opacity="0.5"/>
    <rect width="2.15055" height="0.460455" rx="0.230228" transform="matrix(-1 -1.74846e-07 -1.74846e-07 1 3.01562 77.9941)" fill="#A6A6A6" fill-opacity="0.5"/>
    <rect width="3.07221" height="2.30227" rx="0.430476" transform="matrix(-1 -1.74846e-07 -1.74846e-07 1 9.13281 75.5371)" fill="#A6A6A6" fill-opacity="0.5"/>
    <rect width="2.15055" height="0.460455" rx="0.230228" transform="matrix(-1 -1.74846e-07 -1.74846e-07 1 8.67188 77.9941)" fill="#A6A6A6" fill-opacity="0.5"/>
    <rect width="3.07221" height="2.30227" rx="0.430476" transform="matrix(-1 -1.74846e-07 -1.74846e-07 1 14.7891 75.5371)" fill="#61C3F2"/>
    <rect width="2.15055" height="0.460455" rx="0.230228" transform="matrix(-1 -1.74846e-07 -1.74846e-07 1 14.3281 77.9941)" fill="#61C3F2"/>
    <rect width="3.07221" height="2.30227" rx="0.430476" transform="matrix(-1 -1.74846e-07 -1.74846e-07 1 20.4453 75.5371)" fill="#61C3F2"/>
    <rect width="2.15055" height="0.460455" rx="0.230228" transform="matrix(-1 -1.74846e-07 -1.74846e-07 1 19.9844 77.9941)" fill="#61C3F2"/>
    <rect width="3.07221" height="2.30227" rx="0.430476" transform="matrix(-1 -1.74846e-07 -1.74846e-07 1 26.1016 75.5371)" fill="#A6A6A6" fill-opacity="0.5"/>
    <rect width="2.15055" height="0.460455" rx="0.230228" transform="matrix(-1 -1.74846e-07 -1.74846e-07 1 25.6406 77.9941)" fill="#A6A6A6" fill-opacity="0.5"/>
    <rect width="3.07221" height="2.30227" rx="0.430476" transform="matrix(-1 -1.74846e-07 -1.74846e-07 1 37.4062 75.5371)" fill="#A6A6A6" fill-opacity="0.5"/>
    <rect width="2.15055" height="0.460455" rx="0.230228" transform="matrix(-1 -1.74846e-07 -1.74846e-07 1 36.9453 77.9941)" fill="#A6A6A6" fill-opacity="0.5"/>
    <rect width="3.07221" height="2.30227" rx="0.430476" transform="matrix(-1 -1.74846e-07 -1.74846e-07 1 43.0625 75.5371)" fill="#A6A6A6" fill-opacity="0.5"/>
    <rect width="2.15055" height="0.460455" rx="0.230228" transform="matrix(-1 -1.74846e-07 -1.74846e-07 1 42.6016 77.9941)" fill="#A6A6A6" fill-opacity="0.5"/>
    <rect width="3.07221" height="2.30227" rx="0.430476" transform="matrix(-1 -1.74846e-07 -1.74846e-07 1 48.7188 75.5371)" fill="#61C3F2"/>
    <rect width="2.15055" height="0.460455" rx="0.230228" transform="matrix(-1 -1.74846e-07 -1.74846e-07 1 48.2578 77.9941)" fill="#61C3F2"/>
    <rect width="3.07221" height="2.30227" rx="0.430476" transform="matrix(-1 -1.74846e-07 -1.74846e-07 1 54.375 75.5371)" fill="#61C3F2"/>
    <rect width="2.15055" height="0.460455" rx="0.230228" transform="matrix(-1 -1.74846e-07 -1.74846e-07 1 53.9141 77.9941)" fill="#61C3F2"/>
    <rect width="3.07221" height="2.30227" rx="0.430476" transform="matrix(-1 -1.74846e-07 -1.74846e-07 1 60.0312 75.5371)" fill="#A6A6A6" fill-opacity="0.5"/>
    <rect width="2.15055" height="0.460455" rx="0.230228" transform="matrix(-1 -1.74846e-07 -1.74846e-07 1 59.5703 77.9941)" fill="#A6A6A6" fill-opacity="0.5"/>
    <rect width="3.07221" height="2.30227" rx="0.430476" transform="matrix(-1 -1.74846e-07 -1.74846e-07 1 65.6875 75.5371)" fill="#A6A6A6" fill-opacity="0.5"/>
    <rect width="2.15055" height="0.460455" rx="0.230228" transform="matrix(-1 -1.74846e-07 -1.74846e-07 1 65.2266 77.9941)" fill="#A6A6A6" fill-opacity="0.5"/>
    <rect width="3.07221" height="2.30227" rx="0.430476" transform="matrix(-1 -1.74846e-07 -1.74846e-07 1 71.3359 75.5371)" fill="#61C3F2"/>
    <rect width="2.15055" height="0.460455" rx="0.230228" transform="matrix(-1 -1.74846e-07 -1.74846e-07 1 70.875 77.9941)" fill="#61C3F2"/>
    <rect width="3.07221" height="2.30227" rx="0.430476" transform="matrix(-1 -1.74846e-07 -1.74846e-07 1 76.9922 75.5371)" fill="#61C3F2"/>
    <rect width="2.15055" height="0.460455" rx="0.230228" transform="matrix(-1 -1.74846e-07 -1.74846e-07 1 76.5312 77.9941)" fill="#61C3F2"/>
    <rect width="3.07221" height="2.30227" rx="0.430476" transform="matrix(-1 -1.74846e-07 -1.74846e-07 1 82.6484 75.5371)" fill="#A6A6A6" fill-opacity="0.5"/>
    <rect width="2.15055" height="0.460455" rx="0.230228" transform="matrix(-1 -1.74846e-07 -1.74846e-07 1 82.1875 77.9941)" fill="#A6A6A6" fill-opacity="0.5"/>
    <rect width="3.07221" height="2.30227" rx="0.430476" transform="matrix(-1 -1.74846e-07 -1.74846e-07 1 88.3047 75.5371)" fill="#A6A6A6" fill-opacity="0.5"/>
    <rect width="2.15055" height="0.460455" rx="0.230228" transform="matrix(-1 -1.74846e-07 -1.74846e-07 1 87.8438 77.9941)" fill="#A6A6A6" fill-opacity="0.5"/>
    <rect width="3.07221" height="2.30227" rx="0.430476" transform="matrix(-1 -1.74846e-07 -1.74846e-07 1 93.9609 75.5371)" fill="#61C3F2"/>
    <rect width="2.15055" height="0.460455" rx="0.230228" transform="matrix(-1 -1.74846e-07 -1.74846e-07 1 93.5 77.9941)" fill="#61C3F2"/>
    <rect width="3.07221" height="2.30227" rx="0.430476" transform="matrix(-1 -1.74846e-07 -1.74846e-07 1 99.6172 75.5371)" fill="#61C3F2"/>
    <rect width="2.15055" height="0.460455" rx="0.230228" transform="matrix(-1 -1.74846e-07 -1.74846e-07 1 99.1562 77.9941)" fill="#61C3F2"/>
    <rect width="3.07221" height="2.30227" rx="0.430476" transform="matrix(-1 -1.74846e-07 -1.74846e-07 1 105.273 75.5371)" fill="#A6A6A6" fill-opacity="0.5"/>
    <rect width="2.15055" height="0.460455" rx="0.230228" transform="matrix(-1 -1.74846e-07 -1.74846e-07 1 104.812 77.9941)" fill="#A6A6A6" fill-opacity="0.5"/>
    <rect width="3.07221" height="2.30227" rx="0.430476" transform="matrix(-1 -1.74846e-07 -1.74846e-07 1 110.922 75.5371)" fill="#A6A6A6" fill-opacity="0.5"/>
    <rect width="2.15055" height="0.460455" rx="0.230228" transform="matrix(-1 -1.74846e-07 -1.74846e-07 1 110.461 77.9941)" fill="#A6A6A6" fill-opacity="0.5"/>
    <rect width="3.07221" height="2.30227" rx="0.430476" transform="matrix(-1 -1.74846e-07 -1.74846e-07 1 122.234 75.5371)" fill="#A6A6A6" fill-opacity="0.5"/>
    <rect width="2.15055" height="0.460455" rx="0.230228" transform="matrix(-1 -1.74846e-07 -1.74846e-07 1 121.773 77.9941)" fill="#A6A6A6" fill-opacity="0.5"/>
    <rect width="3.07221" height="2.30227" rx="0.430476" transform="matrix(-1 -1.74846e-07 -1.74846e-07 1 127.891 75.5371)" fill="#61C3F2"/>
    <rect width="2.15055" height="0.460455" rx="0.230228" transform="matrix(-1 -1.74846e-07 -1.74846e-07 1 127.43 77.9941)" fill="#61C3F2"/>
    <rect width="3.07221" height="2.30227" rx="0.430476" transform="matrix(-1 -1.74846e-07 -1.74846e-07 1 133.547 75.5371)" fill="#61C3F2"/>
    <rect width="2.15055" height="0.460455" rx="0.230228" transform="matrix(-1 -1.74846e-07 -1.74846e-07 1 133.086 77.9941)" fill="#61C3F2"/>
    <rect width="3.07221" height="2.30227" rx="0.430476" transform="matrix(-1 -1.74846e-07 -1.74846e-07 1 139.203 75.5371)" fill="#A6A6A6" fill-opacity="0.5"/>
    <rect width="2.15055" height="0.460455" rx="0.230228" transform="matrix(-1 -1.74846e-07 -1.74846e-07 1 138.742 77.9941)" fill="#A6A6A6" fill-opacity="0.5"/>
    <rect width="3.07221" height="2.30227" rx="0.430476" transform="matrix(-1 -1.74846e-07 -1.74846e-07 1 144.852 75.5371)" fill="#A6A6A6" fill-opacity="0.5"/>
    <rect width="2.15055" height="0.460455" rx="0.230228" transform="matrix(-1 -1.74846e-07 -1.74846e-07 1 144.398 77.9941)" fill="#A6A6A6" fill-opacity="0.5"/>
    <rect width="3.07221" height="2.30227" rx="0.430476" transform="matrix(-1 -1.74846e-07 -1.74846e-07 1 3.47656 82.3262)" fill="#61C3F2"/>
    <rect width="2.15055" height="0.460455" rx="0.230228" transform="matrix(-1 -1.74846e-07 -1.74846e-07 1 3.01562 84.7812)" fill="#61C3F2"/>
    <rect width="3.07221" height="2.30227" rx="0.430476" transform="matrix(-1 -1.74846e-07 -1.74846e-07 1 9.13281 82.3262)" fill="#61C3F2"/>
    <rect width="2.15055" height="0.460455" rx="0.230228" transform="matrix(-1 -1.74846e-07 -1.74846e-07 1 8.67188 84.7812)" fill="#61C3F2"/>
    <rect width="3.07221" height="2.30227" rx="0.430476" transform="matrix(-1 -1.74846e-07 -1.74846e-07 1 14.7891 82.3262)" fill="#A6A6A6" fill-opacity="0.5"/>
    <rect width="2.15055" height="0.460455" rx="0.230228" transform="matrix(-1 -1.74846e-07 -1.74846e-07 1 14.3281 84.7812)" fill="#A6A6A6" fill-opacity="0.5"/>
    <rect width="3.07221" height="2.30227" rx="0.430476" transform="matrix(-1 -1.74846e-07 -1.74846e-07 1 20.4453 82.3262)" fill="#A6A6A6" fill-opacity="0.5"/>
    <rect width="2.15055" height="0.460455" rx="0.230228" transform="matrix(-1 -1.74846e-07 -1.74846e-07 1 19.9844 84.7812)" fill="#A6A6A6" fill-opacity="0.5"/>
    <rect width="3.07221" height="2.30227" rx="0.430476" transform="matrix(-1 -1.74846e-07 -1.74846e-07 1 26.1016 82.3262)" fill="#A6A6A6" fill-opacity="0.5"/>
    <rect width="2.15055" height="0.460455" rx="0.230228" transform="matrix(-1 -1.74846e-07 -1.74846e-07 1 25.6406 84.7812)" fill="#A6A6A6" fill-opacity="0.5"/>
    <rect width="3.07221" height="2.30227" rx="0.430476" transform="matrix(-1 -1.74846e-07 -1.74846e-07 1 37.4062 82.3262)" fill="#61C3F2"/>
    <rect width="2.15055" height="0.460455" rx="0.230228" transform="matrix(-1 -1.74846e-07 -1.74846e-07 1 36.9453 84.7812)" fill="#61C3F2"/>
    <rect width="3.07221" height="2.30227" rx="0.430476" transform="matrix(-1 -1.74846e-07 -1.74846e-07 1 43.0625 82.3262)" fill="#61C3F2"/>
    <rect width="2.15055" height="0.460455" rx="0.230228" transform="matrix(-1 -1.74846e-07 -1.74846e-07 1 42.6016 84.7812)" fill="#61C3F2"/>
    <rect width="3.07221" height="2.30227" rx="0.430476" transform="matrix(-1 -1.74846e-07 -1.74846e-07 1 48.7188 82.3262)" fill="#A6A6A6" fill-opacity="0.5"/>
    <rect width="2.15055" height="0.460455" rx="0.230228" transform="matrix(-1 -1.74846e-07 -1.74846e-07 1 48.2578 84.7812)" fill="#A6A6A6" fill-opacity="0.5"/>
    <rect width="3.07221" height="2.30227" rx="0.430476" transform="matrix(-1 -1.74846e-07 -1.74846e-07 1 54.375 82.3262)" fill="#A6A6A6" fill-opacity="0.5"/>
    <rect width="2.15055" height="0.460455" rx="0.230228" transform="matrix(-1 -1.74846e-07 -1.74846e-07 1 53.9141 84.7812)" fill="#A6A6A6" fill-opacity="0.5"/>
    <rect width="3.07221" height="2.30227" rx="0.430476" transform="matrix(-1 -1.74846e-07 -1.74846e-07 1 60.0312 82.3262)" fill="#61C3F2"/>
    <rect width="2.15055" height="0.460455" rx="0.230228" transform="matrix(-1 -1.74846e-07 -1.74846e-07 1 59.5703 84.7812)" fill="#61C3F2"/>
    <rect width="3.07221" height="2.30227" rx="0.430476" transform="matrix(-1 -1.74846e-07 -1.74846e-07 1 65.6875 82.3262)" fill="#61C3F2"/>
    <rect width="2.15055" height="0.460455" rx="0.230228" transform="matrix(-1 -1.74846e-07 -1.74846e-07 1 65.2266 84.7812)" fill="#61C3F2"/>
    <rect width="3.07221" height="2.30227" rx="0.430476" transform="matrix(-1 -1.74846e-07 -1.74846e-07 1 71.3359 82.3262)" fill="#A6A6A6" fill-opacity="0.5"/>
    <rect width="2.15055" height="0.460455" rx="0.230228" transform="matrix(-1 -1.74846e-07 -1.74846e-07 1 70.875 84.7812)" fill="#A6A6A6" fill-opacity="0.5"/>
    <rect width="3.07221" height="2.30227" rx="0.430476" transform="matrix(-1 -1.74846e-07 -1.74846e-07 1 76.9922 82.3262)" fill="#A6A6A6" fill-opacity="0.5"/>
    <rect width="2.15055" height="0.460455" rx="0.230228" transform="matrix(-1 -1.74846e-07 -1.74846e-07 1 76.5312 84.7812)" fill="#A6A6A6" fill-opacity="0.5"/>
    <rect width="3.07221" height="2.30227" rx="0.430476" transform="matrix(-1 -1.74846e-07 -1.74846e-07 1 82.6484 82.3262)" fill="#61C3F2"/>
    <rect width="2.15055" height="0.460455" rx="0.230228" transform="matrix(-1 -1.74846e-07 -1.74846e-07 1 82.1875 84.7812)" fill="#61C3F2"/>
    <rect width="3.07221" height="2.30227" rx="0.430476" transform="matrix(-1 -1.74846e-07 -1.74846e-07 1 88.3047 82.3262)" fill="#61C3F2"/>
    <rect width="2.15055" height="0.460455" rx="0.230228" transform="matrix(-1 -1.74846e-07 -1.74846e-07 1 87.8438 84.7812)" fill="#61C3F2"/>
    <rect width="3.07221" height="2.30227" rx="0.430476" transform="matrix(-1 -1.74846e-07 -1.74846e-07 1 93.9609 82.3262)" fill="#A6A6A6" fill-opacity="0.5"/>
    <rect width="2.15055" height="0.460455" rx="0.230228" transform="matrix(-1 -1.74846e-07 -1.74846e-07 1 93.5 84.7812)" fill="#A6A6A6" fill-opacity="0.5"/>
    <rect width="3.07221" height="2.30227" rx="0.430476" transform="matrix(-1 -1.74846e-07 -1.74846e-07 1 99.6172 82.3262)" fill="#A6A6A6" fill-opacity="0.5"/>
    <rect width="2.15055" height="0.460455" rx="0.230228" transform="matrix(-1 -1.74846e-07 -1.74846e-07 1 99.1562 84.7812)" fill="#A6A6A6" fill-opacity="0.5"/>
    <rect width="3.07221" height="2.30227" rx="0.430476" transform="matrix(-1 -1.74846e-07 -1.74846e-07 1 105.273 82.3262)" fill="#61C3F2"/>
    <rect width="2.15055" height="0.460455" rx="0.230228" transform="matrix(-1 -1.74846e-07 -1.74846e-07 1 104.812 84.7812)" fill="#61C3F2"/>
    <rect width="3.07221" height="2.30227" rx="0.430476" transform="matrix(-1 -1.74846e-07 -1.74846e-07 1 110.922 82.3262)" fill="#61C3F2"/>
    <rect width="2.15055" height="0.460455" rx="0.230228" transform="matrix(-1 -1.74846e-07 -1.74846e-07 1 110.461 84.7812)" fill="#61C3F2"/>
    <rect width="3.07221" height="2.30227" rx="0.430476" transform="matrix(-1 -1.74846e-07 -1.74846e-07 1 122.234 82.3262)" fill="#A6A6A6" fill-opacity="0.5"/>
    <rect width="2.15055" height="0.460455" rx="0.230228" transform="matrix(-1 -1.74846e-07 -1.74846e-07 1 121.773 84.7812)" fill="#A6A6A6" fill-opacity="0.5"/>
    <rect width="3.07221" height="2.30227" rx="0.430476" transform="matrix(-1 -1.74846e-07 -1.74846e-07 1 127.891 82.3262)" fill="#A6A6A6" fill-opacity="0.5"/>
    <rect width="2.15055" height="0.460455" rx="0.230228" transform="matrix(-1 -1.74846e-07 -1.74846e-07 1 127.43 84.7812)" fill="#A6A6A6" fill-opacity="0.5"/>
    <rect width="3.07221" height="2.30227" rx="0.430476" transform="matrix(-1 -1.74846e-07 -1.74846e-07 1 133.547 82.3262)" fill="#A6A6A6" fill-opacity="0.5"/>
    <rect width="2.15055" height="0.460455" rx="0.230228" transform="matrix(-1 -1.74846e-07 -1.74846e-07 1 133.086 84.7812)" fill="#A6A6A6" fill-opacity="0.5"/>
    <rect width="3.07221" height="2.30227" rx="0.430476" transform="matrix(-1 -1.74846e-07 -1.74846e-07 1 139.203 82.3262)" fill="#61C3F2"/>
    <rect width="2.15055" height="0.460455" rx="0.230228" transform="matrix(-1 -1.74846e-07 -1.74846e-07 1 138.742 84.7812)" fill="#61C3F2"/>
    <rect width="3.07221" height="2.30227" rx="0.430476" transform="matrix(-1 -1.74846e-07 -1.74846e-07 1 144.852 82.3262)" fill="#61C3F2"/>
    <rect width="2.15055" height="0.460455" rx="0.230228" transform="matrix(-1 -1.74846e-07 -1.74846e-07 1 144.398 84.7812)" fill="#61C3F2"/>
    <rect width="3.07221" height="2.30227" rx="0.430476" transform="matrix(-1 -1.74846e-07 -1.74846e-07 1 3.47656 89.1172)" fill="#A6A6A6" fill-opacity="0.5"/>
    <rect width="2.15055" height="0.460455" rx="0.230228" transform="matrix(-1 -1.74846e-07 -1.74846e-07 1 3.01562 91.5723)" fill="#A6A6A6" fill-opacity="0.5"/>
    <rect width="3.07221" height="2.30227" rx="0.430476" transform="matrix(-1 -1.74846e-07 -1.74846e-07 1 9.13281 89.1172)" fill="#A6A6A6" fill-opacity="0.5"/>
    <rect width="2.15055" height="0.460455" rx="0.230228" transform="matrix(-1 -1.74846e-07 -1.74846e-07 1 8.67188 91.5723)" fill="#A6A6A6" fill-opacity="0.5"/>
    <rect width="3.07221" height="2.30227" rx="0.430476" transform="matrix(-1 -1.74846e-07 -1.74846e-07 1 14.7891 89.1172)" fill="#61C3F2"/>
    <rect width="2.15055" height="0.460455" rx="0.230228" transform="matrix(-1 -1.74846e-07 -1.74846e-07 1 14.3281 91.5723)" fill="#61C3F2"/>
    <rect width="3.07221" height="2.30227" rx="0.430476" transform="matrix(-1 -1.74846e-07 -1.74846e-07 1 20.4453 89.1172)" fill="#61C3F2"/>
    <rect width="2.15055" height="0.460455" rx="0.230228" transform="matrix(-1 -1.74846e-07 -1.74846e-07 1 19.9844 91.5723)" fill="#61C3F2"/>
    <rect width="3.07221" height="2.30227" rx="0.430476" transform="matrix(-1 -1.74846e-07 -1.74846e-07 1 26.1016 89.1172)" fill="#A6A6A6" fill-opacity="0.5"/>
    <rect width="2.15055" height="0.460455" rx="0.230228" transform="matrix(-1 -1.74846e-07 -1.74846e-07 1 25.6406 91.5723)" fill="#A6A6A6" fill-opacity="0.5"/>
    <rect width="3.07221" height="2.30227" rx="0.430476" transform="matrix(-1 -1.74846e-07 -1.74846e-07 1 37.4062 89.1172)" fill="#A6A6A6" fill-opacity="0.5"/>
    <rect width="2.15055" height="0.460455" rx="0.230228" transform="matrix(-1 -1.74846e-07 -1.74846e-07 1 36.9453 91.5723)" fill="#A6A6A6" fill-opacity="0.5"/>
    <rect width="3.07221" height="2.30227" rx="0.430476" transform="matrix(-1 -1.74846e-07 -1.74846e-07 1 43.0625 89.1172)" fill="#A6A6A6" fill-opacity="0.5"/>
    <rect width="2.15055" height="0.460455" rx="0.230228" transform="matrix(-1 -1.74846e-07 -1.74846e-07 1 42.6016 91.5723)" fill="#A6A6A6" fill-opacity="0.5"/>
    <rect width="3.07221" height="2.30227" rx="0.430476" transform="matrix(-1 -1.74846e-07 -1.74846e-07 1 48.7188 89.1172)" fill="#61C3F2"/>
    <rect width="2.15055" height="0.460455" rx="0.230228" transform="matrix(-1 -1.74846e-07 -1.74846e-07 1 48.2578 91.5723)" fill="#61C3F2"/>
    <rect width="3.07221" height="2.30227" rx="0.430476" transform="matrix(-1 -1.74846e-07 -1.74846e-07 1 54.375 89.1172)" fill="#61C3F2"/>
    <rect width="2.15055" height="0.460455" rx="0.230228" transform="matrix(-1 -1.74846e-07 -1.74846e-07 1 53.9141 91.5723)" fill="#61C3F2"/>
    <rect width="3.07221" height="2.30227" rx="0.430476" transform="matrix(-1 -1.74846e-07 -1.74846e-07 1 60.0312 89.1172)" fill="#A6A6A6" fill-opacity="0.5"/>
    <rect width="2.15055" height="0.460455" rx="0.230228" transform="matrix(-1 -1.74846e-07 -1.74846e-07 1 59.5703 91.5723)" fill="#A6A6A6" fill-opacity="0.5"/>
    <rect width="3.07221" height="2.30227" rx="0.430476" transform="matrix(-1 -1.74846e-07 -1.74846e-07 1 65.6875 89.1172)" fill="#A6A6A6" fill-opacity="0.5"/>
    <rect width="2.15055" height="0.460455" rx="0.230228" transform="matrix(-1 -1.74846e-07 -1.74846e-07 1 65.2266 91.5723)" fill="#A6A6A6" fill-opacity="0.5"/>
    <rect width="3.07221" height="2.30227" rx="0.430476" transform="matrix(-1 -1.74846e-07 -1.74846e-07 1 71.3359 89.1172)" fill="#61C3F2"/>
    <rect width="2.15055" height="0.460455" rx="0.230228" transform="matrix(-1 -1.74846e-07 -1.74846e-07 1 70.875 91.5723)" fill="#61C3F2"/>
    <rect width="3.07221" height="2.30227" rx="0.430476" transform="matrix(-1 -1.74846e-07 -1.74846e-07 1 76.9922 89.1172)" fill="#61C3F2"/>
    <rect width="2.15055" height="0.460455" rx="0.230228" transform="matrix(-1 -1.74846e-07 -1.74846e-07 1 76.5312 91.5723)" fill="#61C3F2"/>
    <rect width="3.07221" height="2.30227" rx="0.430476" transform="matrix(-1 -1.74846e-07 -1.74846e-07 1 82.6484 89.1172)" fill="#A6A6A6" fill-opacity="0.5"/>
    <rect width="2.15055" height="0.460455" rx="0.230228" transform="matrix(-1 -1.74846e-07 -1.74846e-07 1 82.1875 91.5723)" fill="#A6A6A6" fill-opacity="0.5"/>
    <rect width="3.07221" height="2.30227" rx="0.430476" transform="matrix(-1 -1.74846e-07 -1.74846e-07 1 88.3047 89.1172)" fill="#A6A6A6" fill-opacity="0.5"/>
    <rect width="2.15055" height="0.460455" rx="0.230228" transform="matrix(-1 -1.74846e-07 -1.74846e-07 1 87.8438 91.5723)" fill="#A6A6A6" fill-opacity="0.5"/>
    <rect width="3.07221" height="2.30227" rx="0.430476" transform="matrix(-1 -1.74846e-07 -1.74846e-07 1 93.9609 89.1172)" fill="#61C3F2"/>
    <rect width="2.15055" height="0.460455" rx="0.230228" transform="matrix(-1 -1.74846e-07 -1.74846e-07 1 93.5 91.5723)" fill="#61C3F2"/>
    <rect width="3.07221" height="2.30227" rx="0.430476" transform="matrix(-1 -1.74846e-07 -1.74846e-07 1 99.6172 89.1172)" fill="#61C3F2"/>
    <rect width="2.15055" height="0.460455" rx="0.230228" transform="matrix(-1 -1.74846e-07 -1.74846e-07 1 99.1562 91.5723)" fill="#61C3F2"/>
    <rect width="3.07221" height="2.30227" rx="0.430476" transform="matrix(-1 -1.74846e-07 -1.74846e-07 1 105.273 89.1172)" fill="#A6A6A6" fill-opacity="0.5"/>
    <rect width="2.15055" height="0.460455" rx="0.230228" transform="matrix(-1 -1.74846e-07 -1.74846e-07 1 104.812 91.5723)" fill="#A6A6A6" fill-opacity="0.5"/>
    <rect width="3.07221" height="2.30227" rx="0.430476" transform="matrix(-1 -1.74846e-07 -1.74846e-07 1 110.922 89.1172)" fill="#A6A6A6" fill-opacity="0.5"/>
    <rect width="2.15055" height="0.460455" rx="0.230228" transform="matrix(-1 -1.74846e-07 -1.74846e-07 1 110.461 91.5723)" fill="#A6A6A6" fill-opacity="0.5"/>
    <rect width="3.07221" height="2.30227" rx="0.430476" transform="matrix(-1 -1.74846e-07 -1.74846e-07 1 122.234 89.1172)" fill="#A6A6A6" fill-opacity="0.5"/>
    <rect width="2.15055" height="0.460455" rx="0.230228" transform="matrix(-1 -1.74846e-07 -1.74846e-07 1 121.773 91.5723)" fill="#A6A6A6" fill-opacity="0.5"/>
    <rect width="3.07221" height="2.30227" rx="0.430476" transform="matrix(-1 -1.74846e-07 -1.74846e-07 1 127.891 89.1172)" fill="#61C3F2"/>
    <rect width="2.15055" height="0.460455" rx="0.230228" transform="matrix(-1 -1.74846e-07 -1.74846e-07 1 127.43 91.5723)" fill="#61C3F2"/>
    <rect width="3.07221" height="2.30227" rx="0.430476" transform="matrix(-1 -1.74846e-07 -1.74846e-07 1 133.547 89.1172)" fill="#61C3F2"/>
    <rect width="2.15055" height="0.460455" rx="0.230228" transform="matrix(-1 -1.74846e-07 -1.74846e-07 1 133.086 91.5723)" fill="#61C3F2"/>
    <rect width="3.07221" height="2.30227" rx="0.430476" transform="matrix(-1 -1.74846e-07 -1.74846e-07 1 139.203 89.1172)" fill="#A6A6A6" fill-opacity="0.5"/>
    <rect width="2.15055" height="0.460455" rx="0.230228" transform="matrix(-1 -1.74846e-07 -1.74846e-07 1 138.742 91.5723)" fill="#A6A6A6" fill-opacity="0.5"/>
    <rect width="3.07221" height="2.30227" rx="0.430476" transform="matrix(-1 -1.74846e-07 -1.74846e-07 1 144.852 89.1172)" fill="#A6A6A6" fill-opacity="0.5"/>
    <rect width="2.15055" height="0.460455" rx="0.230228" transform="matrix(-1 -1.74846e-07 -1.74846e-07 1 144.398 91.5723)" fill="#A6A6A6" fill-opacity="0.5"/>
    <rect width="3.07221" height="2.30227" rx="0.430476" transform="matrix(-1 -1.74846e-07 -1.74846e-07 1 3.47656 95.9082)" fill="#61C3F2"/>
    <rect width="2.15055" height="0.460455" rx="0.230228" transform="matrix(-1 -1.74846e-07 -1.74846e-07 1 3.01562 98.3652)" fill="#61C3F2"/>
    <rect width="3.07221" height="2.30227" rx="0.430476" transform="matrix(-1 -1.74846e-07 -1.74846e-07 1 9.13281 95.9082)" fill="#61C3F2"/>
    <rect width="2.15055" height="0.460455" rx="0.230228" transform="matrix(-1 -1.74846e-07 -1.74846e-07 1 8.67188 98.3652)" fill="#61C3F2"/>
    <rect width="3.07221" height="2.30227" rx="0.430476" transform="matrix(-1 -1.74846e-07 -1.74846e-07 1 14.7891 95.9082)" fill="#A6A6A6" fill-opacity="0.5"/>
    <rect width="2.15055" height="0.460455" rx="0.230228" transform="matrix(-1 -1.74846e-07 -1.74846e-07 1 14.3281 98.3652)" fill="#A6A6A6" fill-opacity="0.5"/>
    <rect width="3.07221" height="2.30227" rx="0.430476" transform="matrix(-1 -1.74846e-07 -1.74846e-07 1 20.4453 95.9082)" fill="#A6A6A6" fill-opacity="0.5"/>
    <rect width="2.15055" height="0.460455" rx="0.230228" transform="matrix(-1 -1.74846e-07 -1.74846e-07 1 19.9844 98.3652)" fill="#A6A6A6" fill-opacity="0.5"/>
    <rect width="3.07221" height="2.30227" rx="0.430476" transform="matrix(-1 -1.74846e-07 -1.74846e-07 1 26.1016 95.9082)" fill="#A6A6A6" fill-opacity="0.5"/>
    <rect width="2.15055" height="0.460455" rx="0.230228" transform="matrix(-1 -1.74846e-07 -1.74846e-07 1 25.6406 98.3652)" fill="#A6A6A6" fill-opacity="0.5"/>
    <rect width="3.07221" height="2.30227" rx="0.430476" transform="matrix(-1 -1.74846e-07 -1.74846e-07 1 37.4062 95.9082)" fill="#61C3F2"/>
    <rect width="2.15055" height="0.460455" rx="0.230228" transform="matrix(-1 -1.74846e-07 -1.74846e-07 1 36.9453 98.3652)" fill="#61C3F2"/>
    <rect width="3.07221" height="2.30227" rx="0.430476" transform="matrix(-1 -1.74846e-07 -1.74846e-07 1 43.0625 95.9082)" fill="#61C3F2"/>
    <rect width="2.15055" height="0.460455" rx="0.230228" transform="matrix(-1 -1.74846e-07 -1.74846e-07 1 42.6016 98.3652)" fill="#61C3F2"/>
    <rect width="3.07221" height="2.30227" rx="0.430476" transform="matrix(-1 -1.74846e-07 -1.74846e-07 1 48.7188 95.9082)" fill="#A6A6A6" fill-opacity="0.5"/>
    <rect width="2.15055" height="0.460455" rx="0.230228" transform="matrix(-1 -1.74846e-07 -1.74846e-07 1 48.2578 98.3652)" fill="#A6A6A6" fill-opacity="0.5"/>
    <rect width="3.07221" height="2.30227" rx="0.430476" transform="matrix(-1 -1.74846e-07 -1.74846e-07 1 54.375 95.9082)" fill="#A6A6A6" fill-opacity="0.5"/>
    <rect width="2.15055" height="0.460455" rx="0.230228" transform="matrix(-1 -1.74846e-07 -1.74846e-07 1 53.9141 98.3652)" fill="#A6A6A6" fill-opacity="0.5"/>
    <rect width="3.07221" height="2.30227" rx="0.430476" transform="matrix(-1 -1.74846e-07 -1.74846e-07 1 60.0312 95.9082)" fill="#61C3F2"/>
    <rect width="2.15055" height="0.460455" rx="0.230228" transform="matrix(-1 -1.74846e-07 -1.74846e-07 1 59.5703 98.3652)" fill="#61C3F2"/>
    <rect width="3.07221" height="2.30227" rx="0.430476" transform="matrix(-1 -1.74846e-07 -1.74846e-07 1 65.6875 95.9082)" fill="#61C3F2"/>
    <rect width="2.15055" height="0.460455" rx="0.230228" transform="matrix(-1 -1.74846e-07 -1.74846e-07 1 65.2266 98.3652)" fill="#61C3F2"/>
    <rect width="3.07221" height="2.30227" rx="0.430476" transform="matrix(-1 -1.74846e-07 -1.74846e-07 1 71.3359 95.9082)" fill="#A6A6A6" fill-opacity="0.5"/>
    <rect width="2.15055" height="0.460455" rx="0.230228" transform="matrix(-1 -1.74846e-07 -1.74846e-07 1 70.875 98.3652)" fill="#A6A6A6" fill-opacity="0.5"/>
    <rect width="3.07221" height="2.30227" rx="0.430476" transform="matrix(-1 -1.74846e-07 -1.74846e-07 1 76.9922 95.9082)" fill="#A6A6A6" fill-opacity="0.5"/>
    <rect width="2.15055" height="0.460455" rx="0.230228" transform="matrix(-1 -1.74846e-07 -1.74846e-07 1 76.5312 98.3652)" fill="#A6A6A6" fill-opacity="0.5"/>
    <rect width="3.07221" height="2.30227" rx="0.430476" transform="matrix(-1 -1.74846e-07 -1.74846e-07 1 82.6484 95.9082)" fill="#61C3F2"/>
    <rect width="2.15055" height="0.460455" rx="0.230228" transform="matrix(-1 -1.74846e-07 -1.74846e-07 1 82.1875 98.3652)" fill="#61C3F2"/>
    <rect width="3.07221" height="2.30227" rx="0.430476" transform="matrix(-1 -1.74846e-07 -1.74846e-07 1 88.3047 95.9082)" fill="#61C3F2"/>
    <rect width="2.15055" height="0.460455" rx="0.230228" transform="matrix(-1 -1.74846e-07 -1.74846e-07 1 87.8438 98.3652)" fill="#61C3F2"/>
    <rect width="3.07221" height="2.30227" rx="0.430476" transform="matrix(-1 -1.74846e-07 -1.74846e-07 1 93.9609 95.9082)" fill="#A6A6A6" fill-opacity="0.5"/>
    <rect width="2.15055" height="0.460455" rx="0.230228" transform="matrix(-1 -1.74846e-07 -1.74846e-07 1 93.5 98.3652)" fill="#A6A6A6" fill-opacity="0.5"/>
    <rect width="3.07221" height="2.30227" rx="0.430476" transform="matrix(-1 -1.74846e-07 -1.74846e-07 1 99.6172 95.9082)" fill="#A6A6A6" fill-opacity="0.5"/>
    <rect width="2.15055" height="0.460455" rx="0.230228" transform="matrix(-1 -1.74846e-07 -1.74846e-07 1 99.1562 98.3652)" fill="#A6A6A6" fill-opacity="0.5"/>
    <rect width="3.07221" height="2.30227" rx="0.430476" transform="matrix(-1 -1.74846e-07 -1.74846e-07 1 105.273 95.9082)" fill="#61C3F2"/>
    <rect width="2.15055" height="0.460455" rx="0.230228" transform="matrix(-1 -1.74846e-07 -1.74846e-07 1 104.812 98.3652)" fill="#61C3F2"/>
    <rect width="3.07221" height="2.30227" rx="0.430476" transform="matrix(-1 -1.74846e-07 -1.74846e-07 1 110.922 95.9082)" fill="#61C3F2"/>
    <rect width="2.15055" height="0.460455" rx="0.230228" transform="matrix(-1 -1.74846e-07 -1.74846e-07 1 110.461 98.3652)" fill="#61C3F2"/>
    <rect width="3.07221" height="2.30227" rx="0.430476" transform="matrix(-1 -1.74846e-07 -1.74846e-07 1 122.234 95.9082)" fill="#A6A6A6" fill-opacity="0.5"/>
    <rect width="2.15055" height="0.460455" rx="0.230228" transform="matrix(-1 -1.74846e-07 -1.74846e-07 1 121.773 98.3652)" fill="#A6A6A6" fill-opacity="0.5"/>
    <rect width="3.07221" height="2.30227" rx="0.430476" transform="matrix(-1 -1.74846e-07 -1.74846e-07 1 127.891 95.9082)" fill="#A6A6A6" fill-opacity="0.5"/>
    <rect width="2.15055" height="0.460455" rx="0.230228" transform="matrix(-1 -1.74846e-07 -1.74846e-07 1 127.43 98.3652)" fill="#A6A6A6" fill-opacity="0.5"/>
    <rect width="3.07221" height="2.30227" rx="0.430476" transform="matrix(-1 -1.74846e-07 -1.74846e-07 1 133.547 95.9082)" fill="#A6A6A6" fill-opacity="0.5"/>
    <rect width="2.15055" height="0.460455" rx="0.230228" transform="matrix(-1 -1.74846e-07 -1.74846e-07 1 133.086 98.3652)" fill="#A6A6A6" fill-opacity="0.5"/>
    <rect width="3.07221" height="2.30227" rx="0.430476" transform="matrix(-1 -1.74846e-07 -1.74846e-07 1 139.203 95.9082)" fill="#61C3F2"/>
    <rect width="2.15055" height="0.460455" rx="0.230228" transform="matrix(-1 -1.74846e-07 -1.74846e-07 1 138.742 98.3652)" fill="#61C3F2"/>
    <rect width="3.07221" height="2.30227" rx="0.430476" transform="matrix(-1 -1.74846e-07 -1.74846e-07 1 144.852 95.9082)" fill="#61C3F2"/>
    <rect width="2.15055" height="0.460455" rx="0.230228" transform="matrix(-1 -1.74846e-07 -1.74846e-07 1 144.398 98.3652)" fill="#61C3F2"/>
    <rect width="3.07221" height="2.30227" rx="0.430476" transform="matrix(-1 -1.74846e-07 -1.74846e-07 1 9.13281 102.699)" fill="#A6A6A6" fill-opacity="0.5"/>
    <rect width="2.15055" height="0.460455" rx="0.230228" transform="matrix(-1 -1.74846e-07 -1.74846e-07 1 8.67188 105.156)" fill="#A6A6A6" fill-opacity="0.5"/>
    <rect width="3.07221" height="2.30227" rx="0.430476" transform="matrix(-1 -1.74846e-07 -1.74846e-07 1 14.7891 102.699)" fill="#4FD2CF"/>
    <rect width="2.15055" height="0.460455" rx="0.230228" transform="matrix(-1 -1.74846e-07 -1.74846e-07 1 14.3281 105.156)" fill="#4FD2CF"/>
    <rect width="3.07221" height="2.30227" rx="0.430476" transform="matrix(-1 -1.74846e-07 -1.74846e-07 1 20.4453 102.699)" fill="#4FD2CF"/>
    <rect width="2.15055" height="0.460455" rx="0.230228" transform="matrix(-1 -1.74846e-07 -1.74846e-07 1 19.9844 105.156)" fill="#4FD2CF"/>
    <rect width="3.07221" height="2.30227" rx="0.430476" transform="matrix(-1 -1.74846e-07 -1.74846e-07 1 43.0625 102.699)" fill="#61C3F2"/>
    <rect width="2.15055" height="0.460455" rx="0.230228" transform="matrix(-1 -1.74846e-07 -1.74846e-07 1 42.6016 105.156)" fill="#61C3F2"/>
    <rect width="3.07221" height="2.30227" rx="0.430476" transform="matrix(-1 -1.74846e-07 -1.74846e-07 1 48.7188 102.699)" fill="#A6A6A6" fill-opacity="0.5"/>
    <rect width="2.15055" height="0.460455" rx="0.230228" transform="matrix(-1 -1.74846e-07 -1.74846e-07 1 48.2578 105.156)" fill="#A6A6A6" fill-opacity="0.5"/>
    <rect width="3.07221" height="2.30227" rx="0.430476" transform="matrix(-1 -1.74846e-07 -1.74846e-07 1 54.375 102.699)" fill="#A6A6A6" fill-opacity="0.5"/>
    <rect width="2.15055" height="0.460455" rx="0.230228" transform="matrix(-1 -1.74846e-07 -1.74846e-07 1 53.9141 105.156)" fill="#A6A6A6" fill-opacity="0.5"/>
    <rect width="3.07221" height="2.30227" rx="0.430476" transform="matrix(-1 -1.74846e-07 -1.74846e-07 1 60.0312 102.699)" fill="#61C3F2"/>
    <rect width="2.15055" height="0.460455" rx="0.230228" transform="matrix(-1 -1.74846e-07 -1.74846e-07 1 59.5703 105.156)" fill="#61C3F2"/>
    <rect width="3.07221" height="2.30227" rx="0.430476" transform="matrix(-1 -1.74846e-07 -1.74846e-07 1 88.3047 102.699)" fill="#61C3F2"/>
    <rect width="2.15055" height="0.460455" rx="0.230228" transform="matrix(-1 -1.74846e-07 -1.74846e-07 1 87.8438 105.156)" fill="#61C3F2"/>
    <rect width="3.07221" height="2.30227" rx="0.430476" transform="matrix(-1 -1.74846e-07 -1.74846e-07 1 93.9609 102.699)" fill="#A6A6A6" fill-opacity="0.5"/>
    <rect width="2.15055" height="0.460455" rx="0.230228" transform="matrix(-1 -1.74846e-07 -1.74846e-07 1 93.5 105.156)" fill="#A6A6A6" fill-opacity="0.5"/>
    <rect width="3.07221" height="2.30227" rx="0.430476" transform="matrix(-1 -1.74846e-07 -1.74846e-07 1 99.6172 102.699)" fill="#A6A6A6" fill-opacity="0.5"/>
    <rect width="2.15055" height="0.460455" rx="0.230228" transform="matrix(-1 -1.74846e-07 -1.74846e-07 1 99.1562 105.156)" fill="#A6A6A6" fill-opacity="0.5"/>
    <rect width="3.07221" height="2.30227" rx="0.430476" transform="matrix(-1 -1.74846e-07 -1.74846e-07 1 105.273 102.699)" fill="#61C3F2"/>
    <rect width="2.15055" height="0.460455" rx="0.230228" transform="matrix(-1 -1.74846e-07 -1.74846e-07 1 104.812 105.156)" fill="#61C3F2"/>
    <rect width="3.07221" height="2.30227" rx="0.430476" transform="matrix(-1 -1.74846e-07 -1.74846e-07 1 127.891 102.699)" fill="#4FD2CF"/>
    <rect width="2.15055" height="0.460455" rx="0.230228" transform="matrix(-1 -1.74846e-07 -1.74846e-07 1 127.43 105.156)" fill="#4FD2CF"/>
    <rect width="3.07221" height="2.30227" rx="0.430476" transform="matrix(-1 -1.74846e-07 -1.74846e-07 1 133.547 102.699)" fill="#4FD2CF"/>
    <rect width="2.15055" height="0.460455" rx="0.230228" transform="matrix(-1 -1.74846e-07 -1.74846e-07 1 133.086 105.156)" fill="#4FD2CF"/>
    <rect width="3.07221" height="2.30227" rx="0.430476" transform="matrix(-1 -1.74846e-07 -1.74846e-07 1 139.203 102.699)" fill="#A6A6A6" fill-opacity="0.5"/>
    <rect width="2.15055" height="0.460455" rx="0.230228" transform="matrix(-1 -1.74846e-07 -1.74846e-07 1 138.742 105.156)" fill="#A6A6A6" fill-opacity="0.5"/>
    <mask id="mask0_1142_6378" style="mask-type:alpha" maskUnits="userSpaceOnUse" x="0" y="0" width="145" height="17">
        <rect x="0.523438" width="144.255" height="16.2075" fill="#C4C4C4"/>
    </mask>
    <g mask="url(#mask0_1142_6378)">
        <path d="M186.933 42.0382C186.933 47.6429 183.752 52.9969 177.968 57.8805C172.185 62.7637 163.809 67.1662 153.45 70.8655C132.734 78.2639 104.107 82.8419 72.481 82.8419C40.8554 82.8419 12.2284 78.2639 -8.48833 70.8655C-18.8472 67.1662 -27.2225 62.7637 -33.0061 57.8805C-38.7901 52.9969 -41.9705 47.6429 -41.9705 42.0382C-41.9705 36.4335 -38.7901 31.0796 -33.0061 26.1959C-27.2225 21.3127 -18.8472 16.9103 -8.48833 13.2109C12.2284 5.81259 40.8554 1.23457 72.481 1.23457C104.107 1.23457 132.734 5.81259 153.45 13.2109C163.809 16.9103 172.185 21.3127 177.968 26.1959C183.752 31.0796 186.933 36.4335 186.933 42.0382Z" fill="url(#paint0_linear_1142_6378)" fill-opacity="0.3" stroke="#61C3F2" stroke-width="0.215238"/>
    </g>
    <defs>
        <linearGradient id="paint0_linear_1142_6378" x1="72.481" y1="1.12695" x2="72.481" y2="12.5828" gradientUnits="userSpaceOnUse">
            <stop stop-color="#61C3F2" stop-opacity="0.26"/>
            <stop offset="1" stop-color="#61C3F2" stop-opacity="0"/>
        </linearGradient>
    </defs>
</svg>
