<svg width="36" height="36" viewBox="0 0 36 36" fill="none" xmlns="http://www.w3.org/2000/svg">
<path fill-rule="evenodd" clip-rule="evenodd" d="M24.7111 24.3592L20.6585 20.3065C21.3756 19.3568 21.8009 18.1744 21.8009 16.8927C21.8009 13.7612 19.2624 11.2227 16.1309 11.2227C12.9995 11.2227 10.4609 13.7612 10.4609 16.8927C10.4609 20.0241 12.9995 22.5627 16.1309 22.5627C17.4127 22.5627 18.5951 22.1374 19.5448 21.4202L23.5974 25.4729L24.7111 24.3592ZM20.2259 16.8927C20.2259 19.1543 18.3925 20.9877 16.1309 20.9877C13.8693 20.9877 12.0359 19.1543 12.0359 16.8927C12.0359 14.6311 13.8693 12.7977 16.1309 12.7977C18.3925 12.7977 20.2259 14.6311 20.2259 16.8927Z" fill="#202C43"/>
</svg>
