<svg width="24" height="24" viewBox="0 0 24 24" fill="none" xmlns="http://www.w3.org/2000/svg">
<g clip-path="url(#clip0_1142_6892)">
<path d="M3.40629 12.1335C3.40627 12.6858 3.85399 13.1335 4.40629 13.1335H5.46879C6.02106 13.1335 6.46876 12.6858 6.46879 12.1335L6.46879 11.9637C6.46881 11.4114 6.02109 10.9636 5.46879 10.9636H4.40629C3.85402 10.9636 3.40631 11.4113 3.40629 11.9636L3.40629 12.1335ZM3.40633 17.1308C3.40633 17.683 3.85405 18.1308 4.40633 18.1308H5.46883C6.02111 18.1308 6.46883 17.683 6.46883 17.1308L6.46883 16.8513C6.46883 16.299 6.02111 15.8513 5.46883 15.8513H4.40633C3.85405 15.8513 3.40633 16.299 3.40633 16.8513V17.1308ZM3.40633 7.07048C3.40633 7.62276 3.85405 8.07048 4.40633 8.07048H5.46883C6.02111 8.07048 6.46883 7.62276 6.46883 7.07048L6.46883 6.98828C6.46883 6.436 6.02111 5.98828 5.46883 5.98828H4.40633C3.85405 5.98828 3.40633 6.436 3.40633 6.98828V7.07048ZM7.99906 12.1335C7.99904 12.6858 8.44676 13.1335 8.99906 13.1335H19.9991C20.5513 13.1335 20.999 12.6858 20.9991 12.1335L20.9991 11.9637C20.9991 11.4114 20.5514 10.9636 19.9991 10.9636H8.99907C8.4468 10.9636 7.99909 11.4113 7.99907 11.9636L7.99906 12.1335ZM7.9991 17.1308C7.9991 17.683 8.44682 18.1308 8.9991 18.1308H19.9991C20.5514 18.1308 20.9991 17.683 20.9991 17.1308L20.9991 16.8513C20.9991 16.299 20.5514 15.8513 19.9991 15.8513H8.9991C8.44682 15.8513 7.9991 16.299 7.9991 16.8513L7.9991 17.1308ZM8.99911 5.98828C8.44682 5.98828 7.9991 6.436 7.9991 6.98828L7.9991 7.07048C7.9991 7.62276 8.44682 8.07048 8.9991 8.07048H19.9991C20.5514 8.07048 20.9991 7.62277 20.9991 7.07048L20.9991 6.98828C20.9991 6.436 20.5514 5.98828 19.9991 5.98828H8.99911Z" fill="white"/>
</g>
<defs>
<clipPath id="clip0_1142_6892">
<rect width="24" height="24" fill="white"/>
</clipPath>
</defs>
</svg>
